<?xml version="1.0" encoding="UTF-8"?>
<svg id="Layer_1" data-name="Layer 1" xmlns="http://www.w3.org/2000/svg" xmlns:xlink="http://www.w3.org/1999/xlink" viewBox="0 0 330.72 298.78">
  <defs>
    <style>
      .cls-1 {
        fill: #8f4900;
        opacity: .25;
      }

      .cls-2 {
        clip-path: url(#clippath);
      }

      .cls-3 {
        fill: none;
      }
    </style>
    <clipPath id="clippath">
      <rect class="cls-3" width="330.72" height="298.78"/>
    </clipPath>
  </defs>
  <g class="cls-2">
    <path class="cls-1" d="m57.59-175.72c-.24-.97.34-1.73,1.05-2.07.01,0,.02,0,.04-.02.04-.02.07-.04.11-.05.06-.02.13-.06.2-.08,21.78-6.74,44.05-15.23,67.04-16.38,15.64-.78,33.05,2.41,45.58,12.25-6.28-12.03-7.6-26.79-5.83-39.98,3.39-25.45,16.84-48.91,27.58-71.84.31-.63.85-.89,1.41-.89.3-.37.75-.64,1.34-.6,23.17.96,45.73,10.27,65.53,21.84,13.71,8.03,29.32,18,34.03,33.66,2.26-15.92,13.28-31.48,23.17-42.77,7.51-8.59,16.15-16.17,25.49-22.7,9.29-6.49,20.36-13.56,31.38-16.48.58-.16,1.12.21,1.31.67.53-.09,1.09.03,1.51.53,16.25,18.98,35.09,36.46,46.22,59.18,4.71,9.56,8.36,20.4,8.25,31.17-.04,3.5-.64,6.87-1.58,10.15,9.6-11.51,24.1-18.76,38.81-22.28,22.87-5.44,48.34-5.28,71.7-3.66.8-.41,1.84-.25,2.16.84,6.21,21.39,8.13,45.05,7.47,67.28-.55,18.75-6.18,36.4-20.31,47.82,1.24-.46,2.5-.88,3.77-1.26,12.01-3.43,24.19-1.44,36.08,1.5,25.21,6.26,53.19,18.91,70.86,38.55.24.28.26.58.13.82.33.24.53.65.34,1.14-5.17,13.38-11.72,26.21-18.57,38.8-5.83,10.68-12.06,21.31-20.21,30.4-8.87,9.87-21.14,18.54-34.41,21.27,15.67,3.98,30.27,16.12,39.98,27.58,15.04,17.73,23.98,39.76,32.57,61.1.37.95-.2,1.68-.95,1.95-.08.17-.17.34-.36.49-19.16,15.17-41.85,29.52-65.3,36.98-13.78,4.39-29.86,5.71-43.63.76,29.83,29.28,21.1,77.89,10.81,114.92-.13.5-.48.76-.87.87-.14.16-.33.29-.58.31-24.49,2.89-51.37,1.88-75.41-3.5-10.26-2.3-20.9-5.68-29.04-12.63-4.36-3.74-7.59-8.37-10.1-13.41.84,4.56,1.4,9.14,1.84,13.52,1.09,10.6.16,20.95-4.4,30.69-4.99,10.66-12.67,20.12-19.85,29.35-8.13,10.43-16.71,20.51-25.63,30.27.1.81-.81,1.76-1.69,1.32-23.2-11.63-46.95-26.75-64.75-45.81-11.31-12.13-15.24-26.33-15.54-41.54-3.56,15.3-11.54,30.09-25.15,37.45-10.25,5.54-21.8,8.57-32.87,11.96-13.27,4.06-26.53,8.17-39.81,12.16-.05,1.02-1.7,1.63-2.38.63-12.75-18.92-26.13-39.99-31.06-62.56-4.49-20.58,1.05-39.63,10.64-57.47-11.74,10.06-28.98,15.15-43.39,15.24-25.46.16-51.8-7.14-75.73-15.27-.7-.24-.97-.75-.96-1.3-.36-.32-.59-.78-.56-1.36.47-13.7,3.23-27.08,6.24-40.41,2.8-12.36,6.03-24.76,11.68-36.16,6.51-13.16,16.87-25.37,30.33-31.17C61.3,71.89,24.13,31.66,2.81-.8c-.64-.97-.13-1.97.66-2.38.05-.23.15-.47.33-.69,15.35-19.12,32.08-37.95,53.1-51,13.22-8.21,32.11-17,48.43-13.79-16.53-7.98-31.43-21.43-37.87-38.38-8.32-21.92-4.48-46.15-9.88-68.68Zm3.47.6c4.36,19.94,2.13,40.81,7.45,60.55,6.99,25.85,27.93,36.29,49.32,48.7.2.12.33.28.42.45,13.51,5.18,27.19,10.12,40.56,15.65.02-.09.06-.19.08-.28,3-11.04,10.65-19.92,20.47-25.16-23.18-1.68-48.43-2.63-68.16-15.17-14.83-9.4-23.89-25.48-22.15-43.23,1.8-18.34,15.88-33.91,33.75-38.04,42.91-9.93,71.77,34.01,78.37,70.67.22-.1.42-.21.64-.32-.03-.12-.08-.2-.09-.35-.86-11.75,3.72-23.56,12.17-31.72-11.59-12.56-22.37-25.74-34.65-37.69-.26-.25-.37-.54-.41-.83-.18-.19-.33-.39-.51-.57-.15-.04-.33-.1-.47-.23-33.59-31.67-78.47-14.34-116.78-2.43ZM6.32-1.75s-.07.05-.11.09c12,18.05,26.61,34.21,43.74,47.55,19.5,15.2,41.21,20.73,65.34,15.19,7.51-3.29,15.58-5.62,23.4-7.99,6.07-1.84,13.34-4.99,19.85-4.52-2.51-11.15,1.13-21.69,6.72-31.57-11.66,5.34-23.49,10.31-35.3,15.34-10.63,4.54-21.08,9.04-32.86,9.04-16.84,0-33.92-7.9-42.43-22.86-7.77-13.67-8.01-31.46,1.45-44.35,27.17-36.96,76.31-7.29,108.08,8.8-6.3-8.3-7.9-20.69-5.89-30.65-14.21-3.77-28.26-9.21-41.75-15.15-.27.3-.71.48-1.14.34C71.41-78,30.77-32.18,6.32-1.75Zm92.99-150.22c-15.59,22.25-4,50.13,18.67,61.64,17.75,9.01,38.99,10.25,59.08,11.65-7.93-2.11-16.51-5.89-23.19-10.99-.01,0-.02,0-.02,0-14.76,3.55-30.76-.52-40.48-12.65-9.01-11.26-10.73-27.18-3.22-39.67,8.04-13.4,23.92-18.85,38.66-14.06,14.91,4.83,25,18.25,28.56,33.13.03.12.03.23.01.34,8.13,4.95,15.69,11.98,20.44,17.73-6.49-21.33-15.22-42.3-34.49-55.35-20.19-13.66-49.19-13-64.03,8.22Zm14.47,9.93c-7.8,11.34-6.74,26.26,1.4,37.13,8.41,11.21,22.43,15.01,35.72,12.76-7.79-7.13-11.7-16.36-6.16-27,6.58-12.68,18.78-11.12,30.3-4.78-4.48-12.38-12.04-23.73-24.84-28.64-13.26-5.1-28.25-1.35-36.43,10.53Zm-14.41,102.1c-24.58-2.37-49.75,13.99-47,40.83,2.48,24.42,25.86,39.27,49.23,37.27,11.13-.96,21.26-6.01,31.4-10.32,7.86-3.33,15.7-6.66,23.6-9.89-6.62.94-13.54.24-20-1.36-.56-.14-1.15-.29-1.75-.45-8.61,11.89-25.92,16.58-39.8,13.2-15.81-3.86-25.45-18.85-26.3-34.71-2.01-37.12,49.75-36.19,68.03-14.45,4.03-.87,8.13-1.16,12.18-.85-5.31-2.56-10.62-5.11-15.95-7.67-10.77-5.19-21.57-10.43-33.64-11.59Zm96.86-252.28c-17.25,36.73-43.54,81.9-14.64,119.38,12.06,11.73,24.29,24.18,33.71,38.17.39-.33.77-.68,1.17-1,7.93-6.37,23.66-12.63,33.43-7.06l.18-.27c-11.13-8.68-22.23-17.37-33.35-26.06-8.39-6.58-17.37-13.31-22.94-22.61-8.56-14.26-7.05-37.74,2.57-51.16,10.57-14.75,30.08-19.97,46.98-14.15,18.15,6.25,31.44,23.97,36.74,41.9,5.47,18.51,1.96,36.95-4.19,54.64,5.93-9.85,15.59-16.92,27.3-18.67.31-.04.62-.05.92-.1-4.08-15.32-5.75-31.58-8.08-47.3-.57-2.61-.82-5.24-.79-7.88-5.36-19.9-25.14-31.24-42.25-40.28-17.96-9.47-36.64-15.3-56.78-17.55ZM99.75-32.21c-16.25.43-29.44,10.13-28.02,27.75,1.19,15.07,10.62,28.65,25.91,31.48,13.51,2.48,25.2-2.89,35.09-11.46-7.53-2.21-15.81-6.06-16.77-14.47-1.22-10.6,8.8-17.45,17.72-20.13h0c-9.91-8.1-20.66-13.55-33.93-13.17Zm48.48-86.27c-7.49,11.52,2.84,24.04,12.66,29.59,8.14,4.59,18.14,8.38,27.6,8.86.03-4.22-.18-8.39-1.26-12.39-.33-1.22.85-2.06,1.77-1.82,3.16-1.96,6.63-3.98,10.28-5.81-.04-.1-.07-.22-.1-.33-9.5-10.97-38.34-37.47-50.94-18.09Zm66.29-134.76c-23.61,9.75-30.16,44.72-14.92,64.17,6.56,8.36,15.56,14.61,23.84,21.1,5,3.9,9.97,7.81,14.97,11.71-3.29-4.27-6.09-8.87-7.92-13.69-14.45-5.78-25.67-17.04-27.13-32.93-1.35-14.73,4.4-31.42,19.07-37.41,28.49-11.64,58.38,23.88,46.73,50.55-.13.28-.34.42-.59.47,4.31,7.52,6.18,17.38,5.53,26.02,5.57-20.11,8.63-40.44-.71-60.31-10.21-21.72-34.32-39.82-58.87-29.68Zm9.94,15.01c-15.1,5.57-20.34,23.11-18.02,37.74,2.08,13.12,11.73,21.28,22.89,27-.26-.98-.48-1.96-.65-2.97-1.75-10.41,4.54-21.07,14.86-23.94,10.92-3.03,18.97,1.72,24.06,9.56,3.64-12.84,1.8-25.61-7.32-35.83-8.56-9.6-23.05-16.28-35.83-11.56ZM116.54,64.56c-21.7,4.94-36.15,21.92-44.02,41.95-8.13,20.65-13.26,44.85-14.14,67.07,21.92,7.43,45.46,13.54,68.67,14.78,11.21.6,22.33-1.17,32.59-5.85,9.48-4.34,16.26-11.08,24.18-17.58.07-.05.14-.09.22-.1,10-10.69,19.47-21.74,29.18-32.69-9.32-7.8-15.09-19.19-13.17-32.26-6.31,11.67-13.43,22.91-20.81,33.93-6.12,9.15-12.44,18.52-21,25.58-13.32,10.97-30.28,11.92-45.16,3.37-14.6-8.39-24.98-22.99-23.94-40.2.51-8.72,2.27-19.14,7.95-26.09,5.44-6.69,13.98-10.09,21.98-12.61,19.79-6.23,41.04-7.95,61.65-10.43-9.69-3.24-17.56-11.12-21.03-20.82-.26-.73-.47-1.45-.68-2.15-14.18,1.53-28.09,8.41-41.73,12.76.19.49-.03,1.2-.72,1.36Zm21.45-81.48c-9.81,2.01-23.81,9.98-17.46,22.14,3.51,6.7,16.74,8.97,23.3,9.9,8.02,1.14,15.47.09,23.14-2.21-3.05-4.39-5.85-9.02-8.76-13.42-.77-1.18.3-2.41,1.38-2.39-.06-.38.03-.8.37-1.17,2.36-2.63,4.35-5.45,6.25-8.31l-1.53-.74c-.06-.01-.11-.02-.18-.05-8.39-4.01-17.3-5.64-26.51-3.76Zm48.27-57.76c-11.79,4.31-21.35,13.76-24.42,26.22-3.05,12.33,1.21,22.08,6.75,32.48,1.3-1.99,2.6-3.96,3.97-5.84-10.1-16.6-.2-36.95,14.23-47.32.55-.39,1.07-.27,1.4.07.03-1.79.1-3.6.17-5.41-.7-.07-1.41-.14-2.11-.19ZM116.29,88.25c-13.34,4.81-20.28,12.51-22.89,26.58-2.25,12.12-.87,23.16,7.05,32.97,15.33,18.97,40.71,23.69,59.01,6.19,14.11-13.49,23.67-31.46,34.2-47.99-5.37,5.25-11.43,10.08-18.03,13.31.08,16.09-12.77,30.71-27.87,35.17-13.7,4.04-28.69-1.12-37.59-12.03-.81-1-1.58-2.04-2.29-3.15-8.57-13.32-6.48-31.85,4.32-43.32,4.63-4.93,10.51-8.16,16.78-9.7,8.4-2.07,17.54-1.12,25.5,2.81,5.75-4.9,13.18-8.89,19.99-11.65-15.33,1.71-31.02,3.28-45.93,7.09-4.14,1.03-8.24,2.26-12.25,3.71Zm127.29-285.4c-12.23,4.07-14.07,17.73-9.13,28.03,4.18,8.71,10.65,16.4,17.64,23.03,2.35-3.53,4.73-6.88,6.84-9.91.05-.84.66-1.62,1.72-1.42,3.34.63,6.78,1.31,10.2,2.09,2.7-16.05-3.36-49.77-27.27-41.82Zm-55.42,129.96c-13.35,11.85-21.31,26.38-14.65,44.05,3.67-4.78,7.98-8.95,14.4-11.44,5.73-2.25,11.68-2.87,17.58-2.37-4.65-2.78-8.73-6.07-11.59-9.76-4.81-6.15-5.71-13.22-5.72-20.52v.03Zm2.07-24.88c1.98,7.3,1.03,14.88.82,22.37-.14,5.12.08,10.19,1.84,15.07,5.38,14.94,27.33,21.89,42.01,24.34.7-2.33,1.5-4.62,2.38-6.9,1.15-2.98,2.46-5.93,3.91-8.83-8.72-3.55-23.59-11.95-15.67-23.12,7.61-10.74,20.6-.58,26.19,6.59,1.69-2.18,3.46-4.3,5.35-6.34l1.23-1.28c.21-.23.4-.44.62-.64,1.23-1.24,2.49-2.44,3.78-3.6-9.05-11.31-17-24.32-31.84-28.53-14.66-4.16-27.67,5.55-40.62,10.86Zm29.91-42.26c-10.41,7.44-15.15,19.21-15.28,31.69,1.88-.79,3.8-1.5,5.73-2.11v-.02c.6-18.62,17.39-30.95,35.16-30.78.97-1.9,2.03-3.76,3.14-5.58-4.34.47-8.74-.29-13.14.43-5.61.92-10.98,3.08-15.62,6.38ZM113.91,98.86c-9.55,10.78-10.99,27.6-2.79,39.53,8.25,12.02,23.84,17.39,37.64,12.51,13.38-4.74,22.32-16.84,24.56-30.53-.82.35-1.65.68-2.49.97-7.91,2.73-18.85,2.72-23.68-5.32-5.54-9.25-2.16-17.68,4.77-24.58-12.8-5.6-28.43-3.38-38.01,7.42ZM162.34-2.07c-.33.39-.74.54-1.14.52,7.98,11.71,14.74,25.72,29.03,30.41,14.36,4.73,29.56.71,43.47-3.62.02,0,.03,0,.04-.02-.54-2.1-1.01-4.23-1.43-6.37-11.84,5.95-26.59,9.34-39.39,4.7-11.03-4.01-19.25-13.5-18.85-25.6.37-11.08,6.96-23.15,18.06-26.56,12.76-3.91,28.7,1.76,40.87,5.57.37-1.65.76-3.31,1.23-4.94-6.8-.27-14.64-2.24-21.88-5.43-8.91-1.56-17.98-1.24-26.35,3.08-7.37,3.8-11.56,10.36-15.74,17.03.12.81-.39,1.66-1.18,1.87-2.06,3.26-4.18,6.47-6.74,9.33Zm82.6-131.84c-15.86,2.5-30.76,10.84-31.91,28.46,6.2-1.64,12.52-2.11,18.52-.42,6.11,1.71,11.45,5,16.14,9.16-3.29-4.86-5.97-10.01-6.97-15.94-1.21-7.07.85-14.34,4.22-21.27Zm-45.67,106.98c-13.28.71-21.77,12.05-22.29,24.81-.52,13.1,9.89,22.27,22.09,24.58,11.41,2.16,22.25-1.93,32.98-5.2-.45-2.57-.79-5.16-1.03-7.75-9.21,1.74-24.76,1.2-24.39-11.72.34-12.06,15.72-13.33,24.48-9.45.33-2.99.77-5.98,1.38-8.94-10.35-3.14-22.25-6.92-33.22-6.33Zm-29.83,43.27c-6.28,10.5-10.92,21.77-7.01,34.07,3.65,11.42,12.73,18.12,23.55,21.88.05-1.51.11-3,.2-4.52-18.92-7.67-21.51-30.16-12.53-46.39-1.49-1.6-2.88-3.28-4.22-5.05Zm5.91,6.79c-3.4,7.17-5.46,14.92-4.36,22.93,1.13,8.19,8.52,15.63,15.31,20.03.6-7.73,2.18-15.14,6.84-20.96,4.14-5.17,10.2-8.74,16.82-11.56-6.89.73-13.8.44-20.62-1.77-5.56-1.8-10.07-4.88-13.98-8.68Zm77.48-165c-2.17,3.58-4.29,7.23-5.97,10.97-3.04,6.73-4.66,13.7-2.49,20.81,3.86,12.72,15.14,21.56,21.41,32.99,1.25-1.03,2.52-2.03,3.82-3.01-4.7-7.08-9.47-14.12-14.1-21.25-2.9-4.46-5.8-9.1-6.9-14.39-.95-4.51-.16-9.28,1.82-13.57,2.64-5.73,7.4-10.65,12.96-13.08,10.49-4.55,22.4-.05,29.89,7.85,9.22,9.73,12.45,23.24,14.81,36.03.08.42-.17.73-.51.88,2.48-.55,4.97-1.01,7.47-1.38-4.67-11.66-4.28-25.51-11.95-35.87-9.97-13.47-27.46-16.72-42.92-19.5-1.76,3.45-3.97,7.02-6.22,10.69,0,.13-.02.26-.06.39-.05.62-.46,1.19-1.06,1.42Zm71.87-142.35c-13.98,14.83-29.19,36.32-25.87,57.78.03.18.01.34-.03.51,2.47,15.41,5.84,31,6.82,46.53,12.24-1.02,23.19,4.16,32.14,12.21-8.64-21.2-20.7-42.22-19.23-65.8,1.13-17.99,11.67-33.5,28.99-39.42,18.07-6.16,35.44,1.06,48.76,13.71,13.56,12.89,18.14,29.76,11.3,47.41-4,10.31-11.11,19.06-18.47,27.13-6.4,7.01-12.89,14.02-19.76,20.57,11.66-5.56,24.27-4.65,34.8.7,4.49-13.14,9.99-27.35,17.33-39.4,2.66-10.19,8.99-18.96,8.49-30.13-.51-11.64-5.11-23.11-10.79-33.14-11.34-20.01-28.29-36-43.18-53.29-.18-.2-.27-.4-.33-.61-8.67,5.12-17.92,9-26.36,14.63-8.92,5.95-17.23,12.78-24.61,20.59Zm-59.32,144.15c-6.52,2.49-12.41,9.56-13.94,16.39-1.46,6.49,1.4,12.45,4.67,17.87,4.92,8.18,10.54,16.01,15.83,23.97,2.8-1.97,5.67-3.78,8.62-5.44-6.6-7.5-12.32-22.35.6-26.94,11.95-4.23,17.56,9.6,16.76,19.26,3.01-1,6.09-1.85,9.19-2.57-.38.01-.74-.15-.85-.58-2.71-10.3-5.07-21.03-11.24-29.92-6.44-9.28-18.14-16.45-29.64-12.06Zm-37.43,72.71c-6.48,9.13,7.88,16.02,14.61,18.8,2.32-4.32,4.98-8.48,7.98-12.46-.07-.03-.13-.06-.17-.1-5.07-4.92-15.88-15.45-22.42-6.24Zm-66.13,154.58c-8.66,6.19-19.82,18.57-10.28,28.67,13.68,14.45,35.77-7.85,47-17.5-4.3-1.79-8.43-3.61-12.21-4.99-.49-.18-.74-.51-.83-.89-.3-.19-.52-.53-.46-.94.68-4.55.77-9.6.86-14.76-8.67,1.84-16.85,5.22-24.08,10.41Zm114.57-241.5c-.04.1-.11.13-.16.21,1.64.45,3.24.92,4.84,1.45-.04-.24-.02-.47.12-.7,11.28-18.04,36.68-23.09,52.33-7.47,1.62-.91,3.26-1.76,4.93-2.56-10.22-7.1-19.39-13.92-32.65-12.75-13.32,1.15-24.06,9.83-29.41,21.83ZM230.88-8.91c-7.11-2.47-23.4-4.04-21.46,8.27,1.53,9.78,13.9,9.11,21.4,8.41-.44-5.58-.41-11.15.05-16.68Zm52.42-143.06s-.06.06-.09.08c7.45,2.67,14.39,6.47,19.85,12.44,4.39,4.84,6.73,10.48,8.43,16.41-.58-7.51-.07-14.9,3.42-20.94,3.79-6.58,10.06-11.77,17.08-15.91-16.21-11.83-37.4-9.65-48.69,7.92Zm82.27-119.49c-25.2-2.59-43.94,18.12-43.98,42.29-.02,19.54,9.03,37.18,16.6,54.88-.27-6.25-.02-13.59,1.25-20.39-9.45-10.16-13.62-24.24-9.64-37.81,3.93-13.48,16.28-26.48,31.11-26.52,2.22-.01,4.46.26,6.65.74,13.49,2.99,25.92,14.61,29.4,27.56,4.64,17.27-6.89,31-19.39,41.39-1.06,7.42-3.95,15.04-7.5,21.01,14.46-15.71,32.57-30.63,36.93-52.02,4.62-22.72-15.43-45.96-37.52-50.52-1.29-.27-2.61-.49-3.92-.62ZM194.18,49.11c-7.87,12.6-2.24,28.11-6.8,41.57.06.01.14,0,.19.02,12.12,4.43,29.37,14.45,42.53,10.36,11.9-3.68,21.35-15.49,31.06-23.53.94-.94,1.86-1.83,2.76-2.69-1.87-1.62-3.65-3.35-5.39-5.11-6.65,10.2-15.58,21.03-28.09,23.62-10.42,2.17-21.97-2.3-28.31-10.86-6.64-8.95-6.73-21.69-.98-31.14,7.29-11.99,22.39-14.75,34.94-18.42-.56-1.61-1.09-3.22-1.55-4.85-12.82,4.88-32.69,8.78-40.36,21.05Zm57.68-106.86c-4.91,6.75-8.83,13.98-11.8,21.53,8.29-7.08,23.17-4.24,33.84.65-3.18-2.7-6.29-5.54-9.27-8.35-2.74-2.6-5.64-5.45-6.87-9.12-1.56-4.62-.53-9.72,1.85-14.05-2.74,2.91-5.34,6.02-7.76,9.34Zm-13.14,28.38c-.43.87-.75,1.75-.99,2.6-2.36,8.56,4.12,16.52,12.02,20.02,7.27,3.21,15.38,2.88,23.12,2.39.03,0,.05,0,.06.01.05-1.14.1-2.27.2-3.41.32-3.27.93-6.33,1.81-9.22-7.26-.77-14.63-1.76-21.76-3.34-1.51,2.87-5.06,4.28-8.19,3.16-2.87-1.03-4.48-4.17-3.77-7-.5-.01-.99-.39-.91-1.04.04-.27.1-.55.17-.8,1-3.49,5.42-5.24,8.74-4.12,3.21,1.07,5.08,4.31,4.69,7.54,7.21.99,14.46,2.43,21.61,3.89,1.37-3.97,3.23-7.64,5.53-11.1-.1-.01-.19-.04-.28-.08-10.62-6.22-34.65-14.57-42.04.5Zm125.64-226.35c-15.75-2.16-29.14,12.22-32.22,26.57-2.38,11.05.97,22.27,8.14,30.75,3.05-11.86,9.86-20.92,23.66-17.36,11.32,2.93,14.78,12.68,13.99,23.39,9.62-10.15,19.78-21.12,16.38-36.32-3.02-13.52-16.18-25.13-29.95-27.03ZM205.96,49.42c-7.43,8.63-8.48,22.25-1.59,31.48,7.04,9.42,20.04,12.73,30.75,8.17,9.48-4.05,15.76-12.96,22.12-20.67-2.1-2.23-4.08-4.6-5.96-7.05-.03.04-.05.08-.09.13-6.41,5.82-19.11,11.7-25.64,2.6-7.06-9.85,6.29-19.45,13.39-23.79-.71-1.65-1.39-3.29-2.01-4.96-10.47,3.11-23.6,5.56-30.98,14.1Zm76.65-161.25c-12.6,3.51-4.47,17,.33,23.27,4.27-2.24,8.69-4.18,13.21-5.77-.72-7.63-2.91-20.49-13.53-17.51Zm-39.76,86c.11.1.16.24.13.45-.43,2.51.38,5.41,3.13,6.12,2.17.56,4.58-.53,5.37-2.65.95-2.55-.5-5.38-3.03-6.19-2.54-.8-4.28.45-5.6,2.27Zm-7.78,6.93c-2.21,11.53-2.33,23.4-.43,35.01,1.23-4.76,4.6-9.08,8.42-12.04,4.17-3.22,9.06-4.94,14.17-5.91-5.5-.82-10.76-2.67-15.16-6.33-3.34-2.8-5.89-6.59-7.01-10.72Zm29.82-51.15c-14.99,16.14,7.26,27.77,17.04,38.16.13.13.2.26.25.4,2.44-3.4,5.29-6.65,8.48-9.85.69-.7,1.41-1.38,2.15-2.03-6.3-4.01-12.09-8.9-17-14.53-.04-.03-.04-.07-.06-.09-2.1.57-4.5.16-6.33-1.17-1.55-1.1-2.79-2.97-2.76-4.94.03-1.74,1.04-3.1,2.29-4.17.22-.32.45-.62.71-.89,2.13-2.16,5.91-2.47,8.42-.67,3,2.14,3.26,6.65,1.15,9.5-.37.52-.83.92-1.32,1.29,5.19,5.1,10.48,9.97,16.07,14.64,4.09-3.49,8.55-6.36,13.27-8.54-.04-.03-.06-.06-.08-.09-7.75-11.42-27.19-31-41.14-18.16-.38.35-.77.73-1.15,1.14Zm4.7,3.58c-.53.87-.91,1.79-.76,2.76.23,1.46,1.38,2.63,2.65,3.24,2.04,1,4.74.68,6.08-1.28,1.32-1.91,1.21-4.91-.78-6.32-2.16-1.52-4.82-.61-6.36,1.26-.23.28-.54.36-.83.33Zm26.79-24.75c-9.38,3.39-18.24,8.26-26.24,14.52,9.92-3.8,21.19,2.62,29.34,10.91-4.45-8.75-7.28-18.94-3.1-25.43ZM271.44-.78c-11.94.79-35.8,4.02-34.72,20.43.05.85.18,1.74.37,2.65,3.9,18.43,28.44,12.24,40.91,6.42.84-.49,1.66-.99,2.47-1.48-.24-.47-.5-.92-.75-1.41-2.02-3.9-3.59-8.03-4.71-12.27-6.48,2.68-13.44,4.65-20.32,6.09.46,3.25-1.44,6.65-4.82,7.73-2.02.66-4.38.23-6.08-1.04-.93-.7-1.74-1.63-1.66-2.64-1.02-.47-1.62-1.57-1.81-2.79-.02-.18-.04-.36-.04-.53-.11-1.93.98-3.75,2.4-4.99,3.38-2.97,8.54-2.32,10.99,1.49.17.28.33.57.47.86,6.83-1.82,13.69-3.65,20.58-5.23-1.15-4.63-1.77-9.38-1.8-14.16-.16.01-.29.02-.44.03-.11.42-.45.79-1.04.82Zm89.09-212.4c-10.89-.96-16.02,7.02-18.2,17.09.73.88.3,2.06-.47,2.52-1.7,10.23-.73,21.96.21,28.56,3.61-1.6,7.22-2.98,10.6-4.16.64-.23,1.12.18,1.24.67.39-.12.83-.12,1.26.17,2.86,1.89,5.77,3.87,8.63,5.96,8.41-12.59,21.69-48.62-3.27-50.81Zm-43.05,70.8c-6.54,11.86-1.05,30.06.53,42.89,0,.03-.01.06-.01.1,2.24-.25,4.48-.42,6.75-.53,0-.02-.02-.03-.03-.05-2.07-14.16-6.95-29.82.39-43.3,5.45-10.01,16.72-13.65,27.52-11.43,11.13,2.28,20.95,10.28,23.21,21.7,2.77,14.03-4.63,27.67-12.54,38.68-.13.16-.28.24-.45.28,2.34.87,4.64,1.81,6.93,2.86.28-.19.61-.29,1-.22v-.03c3.7-6.66,6.13-14.18,9.53-20.98,2.5-7.06,4.1-14.23,2.5-21.18-3.5-15.26-17.19-24.46-29.4-32.63-.38-.24-.54-.55-.56-.87-12.17,5.6-28.59,12.44-35.34,24.69ZM251.57,17.97c-3.83-5.53-12.13,1.51-7.7,4.52.49.33.34,1.07-.1,1.36.65.69,2.04,1.22,2.6,1.36,1.38.33,2.8.19,3.99-.63,2.18-1.51,2.71-4.43,1.21-6.6Zm-41.78,84.63c-2.2-.69-4.39-1.48-6.55-2.32-.76,11.46,3.32,22.02,12.11,29.71,10.38,9.08,23.48,10.06,36.57,9.98-.88-1.57-1.77-3.13-2.67-4.69-19.52,1.53-39.7-10.49-39.84-31.74,0-.41.16-.71.38-.94Zm30.21-59.92c-5.91,4.07-17.93,11.48-12.16,19.75,5.78,8.29,16.21,1.15,22.51-2.15.04-.02.06-.02.1-.02-3.99-5.36-7.45-11.16-10.32-17.3-.04-.09-.08-.19-.13-.28Zm29.44-8.08c-10.96,3.66-24.64,3.77-31.4-4.31,2.72,8.55,6.6,16.79,11.67,24.47,3.63,5.49,7.78,10.4,12.38,14.73,13.46,12.78,30.63,20.63,48.83,23.66-5.91-2.28-10.44-7.27-12.19-13.65-1.72-6.28-.78-12.71,1.16-18.86-9.06,11.43-26.69,19.24-37.73,8.76-5.55-5.27-6.11-13.57-3.69-20.48,2.05-5.9,6.16-10.49,10.97-14.33Zm-57.43,68.64s.02.04,0,.05c0,20.12,18.3,29.95,36.27,30.3-.92-1.6-1.85-3.22-2.77-4.84-2.76-4.83-5.19-10.06-5.18-15.74,0-7.46,3.44-14.65,8.12-21.18-1.09.93-2.17,1.86-3.24,2.78-4.9,4.18-10.09,8.49-16.55,9.84-5.3,1.09-10.97.36-16.66-1.21Zm91.96-196.85c-14.52,5.87-2.11,29.15,5.88,38.78.17.21.25.45.27.66,3.8-1.51,7.74-2.57,11.74-3.2-.08-.07-.18-.17-.24-.29-2.71-5.86-5.53-12.73-6.56-19.13-2.75.02-5.44-2.3-6.6-4.76-1.51-3.23.46-7.05,4.02-7.56.08-.02.12-.01.19,0,2.59-.53,5.45.45,6.88,2.85,1.69,2.84.85,6.86-1.91,8.68-.22.15-.44.27-.68.38,1.29,2.99,2.04,6.33,3.01,9.44,1.01,3.2,2.08,6.39,2.96,9.61.07.25.02.47-.1.63,4.53-.62,9.12-.67,13.72-.11-.09-.11-.12-.24-.12-.39.35-16.85-3.85-37.58-25.15-36.94-.86.03-1.65.09-2.41.17-1.64.36-3.26.74-4.88,1.18Zm-121.4,263.55c-11.23,21.54-19.97,42.39-13.47,66.98,5.47,20.66,18.28,37.41,28.05,55.98,21.22-6.59,43.24-11.87,63.96-19.99,11.23-4.41,20.23-10.31,25.65-21.46,4.96-10.23,7.23-21.27,10.25-32.13.07-.52.15-1.06.21-1.59l.16-1.45c.01-.06.04-.1.05-.15,1.78-13.64,4.74-27.2,6.92-40.75-12.72-1.84-23.86-9.49-30.87-20.28,1.59,13.69,2.62,27.47,3.49,41.23.66,10.64.88,21.64-2.5,31.87-5.25,15.98-19.75,27.11-36.34,29.13-17.37,2.11-34.77-6.8-44.94-20.74-11.96-16.41-7.2-34.61,4.25-50.05,6.37-8.61,14.86-14.94,23.2-21.49,9.45-7.43,18.88-14.86,28.32-22.28-11.95,1.63-24.72-2.11-34.28-9.46-9.06,12.71-19.78,24.5-30.83,35.48-.35.35-.77.42-1.14.35.04.24.02.5-.13.8Zm168.45-322.07c-14.49-2.43-25.11,7.07-26.83,21.21-1.24,10.26,1.81,20.63,3.28,30.7,0,.1-.02.16-.01.25,1.53-.02,3.08,0,4.62.03,0-.09-.05-.19-.03-.3.76-7.54,4.66-26.18,16.11-21.32,8.87,3.78,10.55,17.2,6.13,24.88,2.54.68,5.08,1.44,7.57,2.34-.21-.25-.28-.57-.11-.91,5.55-10.56,12.68-21.23,11.78-33.72-.9-12.32-10.65-21.15-22.5-23.14Zm-40.29,65.57c-2.97,3.63,3.47,10.38,6.66,6.41,1.35-1.68,1.27-4.38-.31-5.87-1.56-1.46-3.77-1.43-5.54-.51-.3.17-.58.12-.81-.04Zm-25.21,55.77c-13.93,17.63-11.35,43.92,1.05,61.66,4.62,6.6,10.6,11.87,17.38,15.68,11.25,6.32,24.68,8.63,37.72,6.35,23.3-4.1,41-23.12,43.03-46.78.57-6.75-.07-13.07-1.71-18.94-4.16-15.04-14.82-27.2-28.27-36.34-.37.22-.82.28-1.32.02-5.73-2.9-11.49-4.62-17.19-5.29-19.28-2.3-37.78,7.34-50.64,23.57-.01.03-.04.05-.05.08Zm34.82-65.76c11.89,3.86,17.84,16.45,18.34,29.64,4.57-12.24,14.38-24.62,27.07-22.99-14.73-5.95-30.3-8.06-45.42-6.65Zm-124.21,290.75c-6.91,11.65-10.21,24.34-3.05,36.67,5.62,9.66,14.77,17.35,25.31,21.15,22.2,8,47.6-4.08,53.85-27.17,3.06-11.33,2.07-23.37,1.27-34.92-.58-8.68-1.23-17.34-1.65-26.01-1.19,7.61-3.45,15.1-7.87,21.34,6.25,13.38,7.1,30.68-2.96,42.42-9.36,10.91-25.77,12.22-38.56,7.38-13.92-5.25-23.63-18.48-21.5-33.72,2.22-15.8,16.32-25.82,30.53-30.32.2-.06.39-.07.57-.07,3.73-8.81,11.39-15.69,16.56-23.8l-26.1,20.58c-9.91,7.82-19.82,15.44-26.38,26.48ZM338.18-113.34c-2.1,4.57-3.19,10.53-3.49,13.51,6.01.33,11.99,1.22,17.89,2.67,1.88-6.85,2.69-15.43-3.48-20.47-5.05-4.11-8.61-.75-10.92,4.28Zm-56.47,142.69c-10.86,7.19-29.68,20.86-19.55,36.01,1.39,2.08,2.94,3.63,4.6,4.72,12.54,8.25,31.54-9.38,37.14-20.16-4.34-2.21-8.4-4.99-12.1-8.33-.01.03-.02.08-.05.11-3.9,5.4-8.89,10.12-14.04,14.4.12.11.24.21.35.33,2.79,3.11,2.12,7.77-1.37,10.03-2.42,1.56-5.2,1.29-7.44-.09-.79-.48-1.51-1.12-2.12-1.85-3.57-1.57-3.12-6.3-.32-8.59,2.47-2.02,6.13-2.49,8.97-1.14,5.17-4.55,10.01-9.42,15.12-14.01h.02c-3.47-3.29-6.6-7.08-9.23-11.41Zm86.31-188.54h0c1.47,1.2,2.89,2.41,4.26,3.68.09-.09.2-.18.33-.24,18.92-9.22,39.54,5.04,46.67,22.73,1.93.13,3.86.31,5.78.58-4.19-11.42-10.91-22.01-22.05-27.72-11.05-5.69-24.32-5.34-34.99.97Zm-101.73,235.98c-9.61,9.62-24.13,23.24-22.79,38.05.56,6.09,3.94,11.37,7.11,16.5.46.73.9,1.46,1.34,2.19,2.82,4.67,4.77,10.52,7.9,14.88.23,2.13,1.41,3.25,3.52,3.36l5.85-1.33c2.94-.66,5.86-1.32,8.8-1.98,8.83-2,17.46-3.29,23.45-10.82,8.79-11.06,10.67-27.53,13.44-40.91.04-.23.16-.38.3-.47-2.7-.33-5.39-.74-8.05-1.26.09,13.1-1.7,30.5-11.5,40.1-7.32,7.14-18.85,9.69-28.39,5.91-4.97-1.97-9.2-5.53-12.17-9.94-3.1-4.58-4.84-10.08-4.68-15.65.44-14.39,11.65-25.08,20.67-35.07-1.66-1.13-3.25-2.32-4.81-3.56Zm-35.53,97.88c-11.81,4.13-23.44,12.16-26.28,25.07-3.04,13.92,5.33,26.71,18.1,31.9,11.75,4.78,27.15,4.11,36-6.03,9.68-11.09,7.27-25.32,3.71-38.19-.23.28-.48.57-.73.86-5.17,5.78-13.91,10.95-21.85,8.07-8.17-2.95-10.98-12.67-9.25-20.5.08-.4.2-.8.31-1.19Zm40.48-118.35c-2.96.45-7.13,4.7-2.98,7.07.24.14.35.33.4.54,1.63,1.22,3.73,1.92,5.76,1.21,2.34-.82,3.88-3.45,2.89-5.83-.31-.73-.78-1.31-1.33-1.78-.07.05-.13.09-.19.15-.86.7-1.77-.26-1.61-1.13-.94-.3-1.95-.39-2.93-.23Zm2.06,25.52c-7.6,8.51-16.89,17.18-19.49,28.74-2.48,11.01,3.16,22.91,13.6,27.54,11.19,4.98,24.37-.11,30.31-10.4,5.81-10.1,5.79-21.91,7.73-33.08-2.22-.46-4.43-1.02-6.62-1.62.49,4.89-2.93,11.07-6.23,14.42-3.47,3.54-7.84,4.59-12.57,3.2-12.83-3.76-6.68-17.75-1.81-25.85-1.68-.94-3.32-1.92-4.93-2.94Zm64.88-139.78c-.04.2-.15.37-.29.48,4.18.64,8.35,1.76,12.42,3.45.29-.22.69-.32,1.17-.12l.15.07c.05-.11.09-.23.17-.33,4.18-5.63,7.46-11.82,11.51-17.49-2.93-1.89-4.22-5.69-2.51-9.02,1.47-2.82,4.63-3.82,7.44-2.98,1.01,0,1.95.27,2.78.75,2.3,1.31,3.71,4.21,3.09,6.91-.87,3.92-5.07,6.33-8.89,5.22-.3-.09-.57-.19-.84-.3-2.2,6.54-6.55,12.7-10.67,18.17,4.99,2.34,9.56,5.43,13.64,9.09.59-.71,1.25-1.43,1.97-2.15,8.59-11.32,20.47-28.96,3.14-38.78-.11-.07-.22-.12-.31-.18-17.65-9.66-30.19,11.79-33.01,26.19-.1.59-.51.92-.96,1.03Zm35.79-95.92c5.42,5.41,9.73,11.72,11.51,19.5,1.1,4.81.8,9.46-.33,14.09,2.56-3.32,5.68-6.21,9.8-8.35,7.07-3.69,14.85-4.81,22.68-4.5-9.65-15.57-24.38-28.22-43.65-20.74ZM237.66,166.8c-5.62,8.9-8.45,17.92.18,24.91,8.1,6.56,17.81-.37,23.47-7.77t0-.03c-.07-.22-.05-.44.04-.64.16-.35.53-.6.89-.61.83-1.19,1.56-2.36,2.14-3.48,4.13-7.95,5.2-17,6.97-25.66-3.73.65-7.35,1.25-10.61,1.98-.68.16-1.37-.43-1.6-.99-1.59-3.81-3.4-7.44-5.3-11.02-2.92,6.41-10.83,14.8-16.17,23.3Zm46.54-79.03c-1.28-.59-2.57-1.21-3.81-1.85-2.46,6.97-11.07,19.22.82,22.2,8.83,2.24,14.77-8.02,16.16-15.56-4.49-1.3-8.9-2.88-13.17-4.79Zm83.42-170.28c-2.1-.25-4.23.72-5.07,2.9-1.01,2.64.32,5.47,3,6.41,2.53.89,5.5-.54,6.38-3.11.97-2.88-1.19-5.23-3.83-5.88-.21-.05-.36-.17-.48-.32Zm-61.34,133.56c0,.17-.03.36-.1.55-4.85,12.75-11.08,36.14,8.18,39.77.57.11,1.16.2,1.77.27,20.17,2.38,22.28-21.42,20.81-35.43-4.36.38-8.77.27-13.12-.27-1.14,6.96-2.05,14.11-3.95,20.9.87.21,1.69.58,2.42,1.08,3.22,2.19,3.76,6.33,1,9.14-2.05,2.1-5.22,2.75-7.8,1.68-.62-.23-1.2-.59-1.72-1.03-.14.02-.31.01-.5-.09-3.14-1.77-3.48-6.13-1.14-8.73,1.59-1.77,4.02-2.51,6.36-2.29.44-7.01,1.96-14.03,3.2-20.94-5.31-.84-10.5-2.36-15.4-4.6Zm117.77-253.26l-.1.22c-5.23,13.57-11.94,26.91-17.62,40.29,8.74,5.1,15.79,13.31,19.33,23.38,1.92-22.75,7.8-47.73,21.66-65.81,10.69-13.95,27.74-21.67,44.9-15.46,17.11,6.16,32.97,20.38,36.87,38.65,4.25,19.93-7.55,35.48-23.99,45.26-16.49,9.81-36.4,17.16-55.47,21.07,11.6,1.25,22.06,7.56,28.98,16.4,8.51-5.34,17.08-10.84,25.86-15.94,5.36-3.94,10.83-7.87,16.65-11.16.04-.2.13-.4.31-.52,9.5-7.51,17.7-14.31,22.22-25.98,4.07-10.54,4.95-21.93,4.75-33.14-.34-19.61-1.76-39.81-7.17-58.74-39.93.98-98.25-4.8-116.33,40.72-.18.46-.49.67-.83.75Zm-50.61,112.02s-.05.04-.07.08c1.75.9,3.49,1.86,5.21,2.84-.02-.18,0-.37.07-.56,4.01-11.11,9.68-28.2,20.85-34.35,9.71-5.35,21.9.31,29.56,6.86,8.47,7.22,12.59,17.77,8.47,28.52-4.71,12.33-16.83,19.56-28.4,24.59,1.43,1.74,2.82,3.53,4.14,5.37,0-.01.01-.03.03-.04,13.97-7.31,30.97-16.7,32.74-34.27,1.23-12.14-4.92-23.68-5.08-35.82-14.19-2.28-29.13-6.19-42.89.05-15.18,6.89-17.33,23.55-24.62,36.71Zm21.36-23.89c-6.21,7.8-10.18,18.17-13.54,27.45-.11.31-.3.5-.51.64,1.81,1.09,3.59,2.22,5.35,3.39.03-.04.04-.08.06-.13,3.76-5.42,7.97-11.2,14.67-13.02,4.4-1.19,9.23-.16,12.18,3.48,3.28,4.01,2.16,8.49-.49,12.49-1.9,2.88-6.23,9.11-10.36,10.08,1.96,1.9,3.84,3.88,5.63,5.93,8.93-5.3,18.55-9.93,24.34-18.94,7.1-11.06,4.15-23.09-5.76-31.1-9.71-7.83-22.8-11.31-31.55-.29Zm-114.25,265.86c-1.56.35-3.12.66-4.68.96,7.05,11.15,18.67,18.94,32.06,19.76,12.3.76,20.77-4.69,30.38-10.77.03-.41.06-.8.1-1.17,0-.08.04-.13.06-.19-1.27-.8-2.54-1.61-3.79-2.4-16.07,13.35-41.67,13.15-53.93-5.18-.23-.34-.27-.7-.18-1Zm33.66-71.76c-1.93,1.63-1.82,4.48-.03,6.15.09.09.16.19.2.3,2.01.92,4.6,1.05,6.47-.23,2.45-1.66,2.68-4.73.24-6.44-2.02-1.42-5-1.39-6.89.22Zm-31.5,71.25s.05.04.07.07c12.27,18.17,33.81,15.52,50.32,5.61-1.3-.82-2.59-1.63-3.88-2.46-5.1-3.31-9.55-6.84-12.23-12.45-4.89-10.29-3.22-21.61-1.97-32.73-1.71,11.26-5.06,23.04-11.93,31.2-4.9,5.8-12.41,8.8-20.37,10.76Zm94.29-236.19c10.59,8.6,6.71,22.26-.56,32.73,11.4-8.1,27.55-13.48,35.95-1.44.27.38.51.76.76,1.18,9.09,15.09-1.35,26.71-14.3,32.71,11.47-.47,24.23,1.74,28.13,11.86-.55-12.31-3.33-24.52-8.69-35.67-1.71-3.56-3.67-6.93-5.84-10.1-8.97-13.18-21.55-23.29-35.43-31.26Zm72-116.04c-11.79,16.08-17.31,37.27-19.57,57.47,3.33-5.55,7.79-11.91,12.89-17.11-.02-.08-.05-.12-.05-.19-.43-15.84,2.34-32.23,17.68-40.18,12.68-6.57,27.87-4.66,38.53,4.8,10.22,9.07,16.66,25.15,11.47,38.48-6.11,15.67-25.72,23.56-41.25,24.91-.08,0-.14-.02-.21-.03-5.18,5.61-11.52,10.58-17.03,14.26,19.62-6.67,39.88-10.98,57.24-23.28,10.39-7.35,18.25-17.75,18.15-30.94-.11-12.28-6.42-23.49-15.41-31.57-8.83-7.91-21.76-15.46-34.05-14.36-11.71,1.05-21.62,8.48-28.39,17.73Zm-79.77,158.64c3.24,3.16,6.09,6.7,8.57,10.49-.03-.35.1-.7.5-.94,5.56-3.54,11.21-7.41,17.22-10.22-1.06-3.43,1.21-7.47,4.72-8.25,2.89-.63,5.98.92,7.45,3.44,1.12,1.06,1.67,2.47,1.68,3.91.02,1.94-.91,3.89-2.72,5.03-3.21,2.05-8.51.43-10.54-2.8-5.08,4.07-10.96,7.41-16.47,10.8-.42.26-.84.21-1.18.03,2.73,4.35,4.92,9.02,6.52,13.88l.06-.02c.04-.54.35-1.09,1.04-1.23,1.38-.29,2.92-.55,4.55-.79,11.64-4.48,24.95-11.57,23.08-24.43-.28-1.93-.9-3.99-1.91-6.2-8.61-18.62-33.8-3.05-42.58,7.29Zm39.28-50.36c-8.57-4.5-16.07,5.56-20.2,11.57,4.34,3.04,8.46,6.36,12.31,9.95,3.23-.59,7.11-6.21,9.04-8.85,3.03-4.2,4.25-9.83-1.15-12.67Zm-68.56,148.56c.02.08.04.14.03.22-.77,12.92,10.07,32.57,25.88,28.78,1.98-.48,3.63-1.42,4.99-2.69,4.74-4.46,5.93-12.9,5.3-18.93-.77-7.28-4.27-12.5-9.13-17.71-.12-.14-.18-.3-.19-.46-3.37,2.51-7.01,4.6-10.84,6.27,1.48,3.13,2.69,6.42,3.93,9.64,1.1,2.9,2.4,5.94,2.91,9.02.5-.09,1.01-.14,1.51-.13,3.71.13,6.82,3.51,6.16,7.26-.23,1.35-.94,2.52-1.91,3.38-1.04.89-2.34,1.42-3.72,1.4-.15.18-.38.31-.66.27-3.2-.51-7.13-2.3-7.08-6.06.03-2.6,1.91-4.71,4.25-5.68-1.58-2.67-2.57-5.76-3.7-8.63-1.26-3.18-2.66-6.33-3.85-9.54-4.45,1.75-9.11,2.95-13.87,3.6Zm-15.36,41.06c-1.91-.07-3.8-.18-5.71-.33.3,13.33-4.57,27.27-.57,40.33,2.03,6.61,6.36,10.85,11.92,14.55,1.28.84,2.57,1.67,3.87,2.49,2.58,1.63,5.18,3.21,7.76,4.84,2.24,1.4,7.45,6.16,10.01,6.29,4.46.25,13.04-9.88,16.28-12.97,5.62-5.32,11.21-11.45,13.14-19.16,3.53-14.18-6.45-30.85-11.55-43.79-2.39.94-4.82,1.78-7.28,2.56,6.19,12.19,14.94,27.21,11.74,41.31-2.51,11.08-11.68,19.96-23.16,21.02-5.49.52-10.6-.72-14.98-3.24-4.76-2.76-8.66-7.07-11.22-12.37-6.3-13.12-3.37-28-.25-41.53Zm104.13-232.91c-.11,1.37-.21,2.73-.27,4.08,4.38.8,8.69,1.89,12.8,3.1.12.04.2.09.29.15.59-.32,1.42-.12,1.49.75.29,3.7,1.09,7.41,2,11.12,12.33-9.11,40.19-28.17,27.17-45.19-8.61-11.28-21.51-3.37-28.48,4.79-5.63,6.58-11.01,13.48-14.99,21.2Zm34.19-63.09c-14.44,6.64-17.6,21.16-17.61,35.6,8.64-7.65,18.66-11.18,27.81-2.04,9.48,9.5,5.57,20.57-2.42,30.19,13.32-3,28.92-8.57,35.47-21.34,6.35-12.42.31-28.58-9.54-37.33-9.29-8.27-22.4-10.28-33.72-5.09ZM326.99,96.97s0,.05,0,.1c-2.22,11.14-4.83,22.91-1.82,34.19,3.15,11.82,12.68,21.29,25.58,20.04,14.39-1.39,23.06-15.36,21.05-29.02-1.51-10.34-7.18-20.38-11.14-29.99-2.82.85-5.67,1.56-8.54,2.19,6,7.44,5.49,23.99-5.7,26.42-13.25,2.89-15.23-14.49-14.62-23.33.03-.29.12-.48.25-.66-1.68.05-3.36.08-5.06.05Zm12.81-27.18c-.98,11.68-6.8,23.09-18.77,24.54,11.83.83,23.89-.3,35.49-3.35,4.04-1.07,8.09-2.36,12.09-3.92,14.03-5.39,27.38-13.73,36.78-25.14,1.47-1.79,2.87-3.66,4.2-5.6-4.31,3.72-10.32,5.29-16.06,4.66-7.17-.78-13.22-4.41-18.54-8.98,6.47,11.54,6.17,30.03-6.39,35.05-12.61,5.05-23.95-5.41-28.8-17.25Zm61.93-119.23c-2.49.09-4.5,2.36-4.39,4.84.13,3.05,4.49,5.31,7.26,4.49,3.61-1.06,3.18-5.01,1.17-7.28-.15-.15-.17-.33-.13-.52-1.06-.96-2.37-1.58-3.91-1.53Zm-15.99,33.73c-.13.02-.26.05-.38.06,1.54,5.07,2.44,10.31,2.61,15.59.03,0,.04-.02.08-.02,6.19-.43,12.88-1.22,19.08-.68.03-.39.08-.79.17-1.19.92-3.73,5.17-6.27,8.87-5.19,3.71,1.08,5.65,5.23,4.47,8.75.05,1.19-.32,2.3-.96,3.22-1.28,1.86-3.69,2.98-6.1,2.58-3.33-.54-5.95-3.45-6.41-6.7-6.01,1.39-12.77,1.39-18.9,1.54-.1,0-.19-.04-.28-.05-.02,4.26-.5,8.54-1.52,12.75,1.91.32,3.92.89,5.93,1.66,6.13.69,12.38.44,18.32-1.39,4.57-1.43,9.32-4.24,12.23-8.11,2.52-3.35,3.66-7.51,2.1-12.21-5.4-16.25-25.98-13.11-38.74-10.59-.22.03-.4.02-.56-.04Zm-51.84,112.57c.32.26.55.64.53,1.16-.19,4.39-.55,9.17,1.14,13.36,1.79,4.37,6.57,8.46,11.5,6.42,2.53-1.05,4.07-2.64,4.95-4.55,2.46-5.34-.3-13.16-1.21-18.49-2.74.56-5.49,1.02-8.25,1.37-2.87.37-5.76.59-8.66.73Zm-24.33,78.94c-.76,0-1.49-.06-2.23-.11-2.18,13.56-4.12,27.43-7.58,40.77.02.08.04.14.03.22-.38,11.8-1.41,23.83,1.76,35.4,3.08,11.3,10.46,19.86,18.87,27.68,16.67,15.5,36.35,26.33,55.34,38.55,15.2-16.62,31.37-34.37,42.63-53.99,9.37-16.3,8.79-37.48,3.87-55.94-.18-.12-.37-.27-.48-.53-.9-2.05-1.55-4.56-1.8-6.99l-.32-.96c-5.71-12.66-10.43-25.84-16.1-38.52-10.83,4.46-23.59,4.62-34.78-.37,7.75,8.48,14.67,17.66,21.01,27.25,6.76,10.2,13.92,21.23,17.91,32.9,5.91,17.28.02,36.1-14.75,46.98-14.24,10.51-34.61,11.67-50.41,4.13-40.04-19.09-17.54-74.38-4.8-106.16-7.27,6.77-18.84,9.85-28.17,9.69Zm59.86-132.79c.13.06.24.13.37.26,9.16,9.82,29.85,25.03,40.67,7.88.39-.62.74-1.23,1.02-1.85,6.87-14.12-10.38-26.41-22.85-31.52-.67-.16-1.32-.33-1.94-.52-.2-.08-.33-.2-.39-.36-.1-.03-.22-.08-.32-.11-1.48,5.31-3.64,10.08-6.31,14.34.14.02.31.06.47.15,5.37,2.94,10.61,6.06,15.54,9.7.98-1.14,2.33-1.97,3.89-2.3,4.28-.85,8.79,1.75,8.7,6.45-.02.8-.2,1.58-.53,2.29-.83,1.81-2.55,3.17-4.52,3.46-.07.24-.22.44-.48.54-3.59,1.46-7.91-.95-8.65-4.74-.3-1.56-.01-3.06.65-4.36-5.24-2.9-10.39-5.94-15.65-8.79-.31-.18-.48-.42-.58-.69-2.63,3.84-5.68,7.25-9.1,10.17Zm47.29-96.42c-.33.2-.66.27-.95.24,1.09,1.74,2.15,3.52,3.13,5.36.08-.28.2-.55.49-.77,9.46-7.59,20.48-16.14,33.3-15.7,11.36.39,24.13,8.31,27.15,19.7,1.62,6.07,1.25,11.28-.55,15.71-6.73,16.5-33.26,21.96-49.9,19.84.14,2.7.22,5.42.17,8.15,6.79-.3,13.83-.11,20.76.36,11.87-1.62,22.47-3.18,28-15.6,1.66-3.73,3.15-7.52,4.62-11.34.63-1.6,1.26-3.22,1.88-4.83-1.02-.94-.25-2.77,1.1-2.79,1.67-4.22,3.45-8.41,5.5-12.47-.17-.03-.33-.09-.49-.21-10.57-7.79-21.68-20.41-34.93-23.26-13.8-2.98-28.32,10.67-39.28,17.61Zm-53.49,125.6c-2.39.42-4.97,3.12-3.56,5.61.73,1.28,2.18,1.91,3.58,2.42,2.62,0,5.45-1.28,5.18-4.39-.21-2.55-2.84-4.06-5.2-3.64Zm83.09-183.75c.39,1.51.77,3.02,1.12,4.54,9.21,2.23,20.5,7.84,25.4,16.39,4.24,7.41,6.49,19.27,4.24,27.76,1.16.92,2.31,1.89,3.42,2.84.15-.07.3-.15.47-.22.13-.21.29-.41.44-.63,3.09-11.25,3.03-22.96-3.45-33.26-3.89-6.16-9.42-10.77-15.78-13.69-4.92-2.26-10.33-3.54-15.87-3.73Zm-25.3,65.32c-.42.33-.84.36-1.2.22.76,1.5,1.5,3.02,2.16,4.59.49,1.1.92,2.22,1.35,3.34,9.48-4.74,27.23-8.41,29.6,6.4,1.83,11.52-15.6,14.45-24.44,13.69.34,2.32.6,4.64.78,6.98,10.3-.14,20.63.36,30.35-3.74,10.78-4.55,20.04-14.94,18.05-27.39-2.29-14.26-19.98-21.96-32.86-18.39-9,2.5-16.63,8.55-23.8,14.29Zm26.93-58.52c1.33,6.36,1.95,12.72.1,19.1-1.67,5.77-4.83,10.5-8.81,14.53,4.72-2.52,9.57-3.94,14.95-3.24,7.72,1.02,14.97,5.35,21.66,10.54.97-7.43-.63-16.25-3.41-22.97-3.82-9.28-14.96-15.48-24.49-17.95ZM409.89-2.59c-1.47,2.57-.12,5.96,2.42,7.3,3.07,1.62,6.42-.26,6.52-3.74.02-.36.27-.67.56-.82-.08-2.03-1.08-4.04-2.95-4.97-2.37-1.19-5.29.03-6.55,2.24Zm-36.78,90.4c.13.13.25.27.34.46,7,15.11,12.48,35.08,30.84,39.63,5.14,1.28,10.38,1.3,15.67,1.01,1.89-.1,3.79-.23,5.69-.36.59-.51,1.49-.63,2.08-.14,4.72-.31,9.45-.49,14.11.17,1.78-14.22,6.1-31.43,1.02-45.09-5.07-13.65-18.31-20.68-30.15-27.55-.03-.01-.05-.04-.08-.05-1.17,1.81-2.42,3.58-3.76,5.3,12.63,5.69,24.88,14.89,29.75,28.3,3.75,10.36,2.15,23.02-6.56,30.5-3.61,3.1-7.87,4.69-12.28,5.08-6.61.57-13.58-1.54-19.23-5.23-11.81-7.75-17.42-21.59-22.49-34.18-.02-.04,0-.09-.02-.13-1.63.79-3.27,1.57-4.94,2.29Zm-20.08,81.74c-3.65-2.3-7.33-4.6-10.98-6.91-.02.14-.01.28-.07.44-.4,1.08-.79,2.17-1.19,3.25-.61,7.57-1.36,15.25-.17,22.73,1.55,9.75,8.24,21,19.58,20.27,12.27-.79,14.9-15.09,12.96-24.7-1.73-8.62-5.76-16.67-8.55-24.98-3.46,3.11-6.85,6.19-9.73,9.48-.42.47-1.27.78-1.86.41Zm46.54-128.76c-2.44.68-4.09,3.31-3.32,5.82.62,2.03,2.44,3,4.37,3.17.09-.11.21-.21.43-.21,2.71-.14,5.57-1.76,5.31-4.87-.28-3.39-3.84-4.76-6.8-3.92Zm24.65-76.43c1.78,5.09,3.1,10.34,3.98,15.66,8.09-.55,26.08-2.23,21.08-13.84-4.38-10.19-17.59-4.91-25.05-1.83Zm-43.9,120.01c.09.11.19.22.25.37,4.35,10.85,8.93,22.67,18.11,30.44,8.12,6.88,20.79,10.54,30.25,4.08,11.22-7.66,11.47-22.97,5.52-33.9-5.9-10.86-16.18-17-26.67-22.77-1.49,1.83-3.06,3.59-4.7,5.29,6.75,4.78,17.7,16.49,9.38,24.19-9.4,8.68-20.13-3.24-24.84-10.77-.22-.36-.26-.71-.18-1.04-2.32,1.45-4.69,2.82-7.12,4.1Zm-42.79,90.8c-7.26,19.68-14.43,40.27-14.21,61.15.3,25.76,23.55,40.65,47.86,37.37,26.88-3.65,43.01-29.98,32.6-55.24-8.26-20.08-21.96-38.07-35.59-54.95,4.41,8.78,9,18.84,8.68,28.55,29.14,10.38,26.87,58.22-3.78,64.7-14.18,2.99-32.57-3.73-40.9-15.79-9.72-14.05-2.26-33.54,5.43-46.59.33-.57.85-.79,1.39-.81-1.28-5.84-1.59-12.34-1.49-18.39Zm59.98-156.19c10.64,5.84,20.12,16.74,17.65,27.91,5.97-11.65,9.62-24.73,11.13-37.31.12-1.04.23-2.09.33-3.14-4.41,9.74-17.68,13.02-29.11,12.54Zm-8.41,60.23c.27.07.56.22.77.54,3.81,5.72,12.79,17.88,20.66,10.2,6.72-6.57-4.42-15.88-8.94-20.56-1.74,1.7-3.55,3.32-5.48,4.83-2.27,1.78-4.61,3.44-7.01,5Zm-49.2,117.67c-6.27,11.09-12.51,26.09-7.12,38.58,5.39,12.49,22.72,19.64,35.6,18.75,15.27-1.07,24.3-13.42,26.01-27.83,1.66-13.86-5.94-25.42-17.7-31.85-.07.52-.14,1.07-.24,1.59-1.51,8.06-7.29,15.56-15.94,16.15-11.83.81-17.77-6.06-20.61-15.39ZM429.46,1.51c-.09,1.95-.22,3.9-.41,5.84,20.03-1.98,57.83,8.09,48.05,34.68-3.56,9.68-12.38,18.29-22.83,19.82-12.91,1.88-26.49-7.88-36.26-15.39-1.32,2.69-2.77,5.32-4.34,7.85,4.89,1.93,9.85,4.44,14.4,7.54.32-.07.67-.03.95.22,11.05,9.46,26.12,11.78,38.36,2.91,4.63-3.34,8.56-7.41,12.92-10.69.13-.84.86-1.53,1.76-1.27,3.22-2.19,6.72-3.85,10.94-4.48-6.9-9.37-6.84-21.34-11.61-31.71-8.8-19.1-34.88-13.27-51.94-15.32Zm-.63,7.8c-.3,2.48-.66,4.95-1.1,7.42,9.36.35,28.63,3.96,24.51,17.71-3.81,12.76-22.02,8.03-30.07,2.32-.93,2.5-1.92,4.94-3.02,7.34,8.64,6.67,21.21,15.87,32.75,15.42,9.64-.38,18.35-8.01,22.06-16.59,11.35-26.25-26.34-33.56-45.13-33.61Zm-1.53,10.05s-.04-.02-.06-.01c-.26,1.27-.53,2.54-.84,3.8-.98,3.97-2.17,7.92-3.55,11.8,4.42,2.14,8.84,4.1,13.8,4.67,5.09.57,12.32-.85,13.19-7.04,1.6-11.22-14.86-12.97-22.53-13.22Zm-55.57,133.71c-1.33,1.31-2.71,2.59-4.09,3.86,10.4,5.48,22.64,6.7,33.72,2.23,12.42-5,19.57-15.41,23.66-27.61-2.18.15-4.36.29-6.54.37-4.56,20.72-28.33,29.47-46.65,21.23-.04-.02-.06-.06-.1-.08Zm11.73-37.1c1.3,5.06,1.91,10.1,1.26,14.85-1.1,8.28-5.66,14.73-11.26,20.51,18.62,7.82,35.62-1.87,43.23-19.34-6.76.19-13.39-.33-19.59-3.43-5.85-2.93-10.16-7.39-13.65-12.6Zm96.78-211.93c5.68,8.32,8.33,18.51,6.14,28.7,6.93-8.1,15.2-15.19,22.78-22.54,7.98-7.73,16.09-16.11,26.63-20.29,36.22-14.37,77.12,26.52,62.98,62.67-6.55,16.73-23.28,27.26-41.01,27.69-10.9.26-21.62-2.5-32.19-4.82-11.51-2.52-22.99-5.1-34.4-7.98,10.65,6.45,17.95,17.63,18.45,30.39,0,.32-.01.65,0,.98,13.28-.55,27.02-.83,40.39.06.21-.31.56-.52,1.07-.45,1.21.15,2.4.22,3.56.3.01-.03.03-.07.06-.09.05-.11.22-.03.17.08v.03c47.5,2.87,67.83-53.81,85.78-88.83h-.01c-10.92-7.73-21.03-16.01-32.95-22.32-11.33-5.99-23.32-10.66-35.74-13.85-12.56-3.24-25.38-5.49-38.02-1.34-3.44,1.14-6.77,2.6-10,4.23.05.26-.02.53-.29.7-13.87,9.67-28.94,17.9-43.39,26.7Zm27.33,12.27c-6.74,6.53-13.9,12.85-19.93,20.05,7.7-4.01,15.85-8.32,24.21-10.52,8.29-11.71,19.55-25.4,35.66-23.33,14.41,1.87,26.27,13.08,29.41,26.95,3.17,14.04,0,27.35-13.19,34.69-13.35,7.43-30.77,6.96-43.76-.87-5.78,2.02-11.8,3.32-17.9,3.89,8.04,1.59,16.02,3.28,24.03,5.02,11.44,2.48,23.25,5.71,35.05,4.58,25.31-2.4,43.79-27.78,35.45-52.5-8-23.68-35.16-41.1-59.68-31.32-11.67,4.67-20.52,14.77-29.34,23.33Zm-24.5,25.86c3.28,2.89,6.4,5.78,9.31,8.32.37.32.45.71.37,1.07.37.12.65.43.5.89-1.17,4.16-2.65,8.22-4.21,12.27.57.09,1.12.21,1.69.3,8.62-.05,17.11-1.07,25.42-3.68,9.24-2.9,31.11-10.91,25.3-24.16-5.51-12.55-23.08-10.48-33.27-6.69-8.62,3.21-16.86,7.64-25.12,11.67Zm-5.02,48.6c-3.76,5.42-9.53,8.32-15.8,9.78,6.69.98,13.12,3.23,17.67,8.55,3.65,4.26,5.58,9.34,7.08,14.66,14.03-14.09,15.35-36.1-2.37-47.63-1.84,5-3.56,10.32-6.58,14.64Zm9.31-21.68c-.63,1.6-1.27,3.2-1.89,4.81l-.05.11c17.43,11.38,21.3,38.97,1.94,50.99.51,1.91.96,3.83,1.44,5.76,9.47-8.75,17.6-17.44,17.58-31.42-.03-13.12-7.76-24.23-19.01-30.25Zm-48.48,102.36c2.32,2.74,4.28,5.75,5.75,9.03,3.27,7.25,3.75,15.53,3.22,23.91,21-3.45,32.78-22.1,27.81-42.68-5.34,4.71-10.74,9.37-17.99,11.02-6.25,1.43-12.86.96-18.79-1.28Zm103.8-166.04c-11.72.96-19.79,10.44-26.34,19.47,2.17-.35,4.36-.55,6.55-.54,9.42.09,21.36,5.13,22.92,15.64,1.66,11.22-12.26,17.66-20.63,21.29-.64.28-1.27.53-1.92.79,10.9,4.88,23.72,5.72,34.91,1.16,15.06-6.15,19.36-19.98,15.33-34.98-3.4-12.7-17.17-23.96-30.81-22.84Zm-115.91,230.35c-3.09,11.28-10.86,19.65-20.56,24.43,5.86,13.25,12.24,26.83,16.41,40.77.36.06.7.29.86.75,4.36,12.27,9.53,23.27,21.29,30.06,9.4,5.42,20.45,7.73,31.05,9.5,21.51,3.58,42.87.97,64.39,2.69,3.78-22.5,10.95-43.46,8.64-66.68-2.09-20.91-11.42-40.83-28.69-53.35-.08-.07-.14-.15-.2-.23-.35-.26-.7-.49-1.05-.77-.3.03-.61-.03-.9-.25-12.62-9.39-26.15-17.18-39.23-25.85-7.03,9.55-17.99,16.52-29.98,17.99,13.36,5.15,26.67,10.39,39.82,16.07,11.52,4.99,24.74,10.62,31.93,21.51,12.59,19.08,8.54,46.55-9.29,60.86-17.75,14.25-45.23,7.1-60.76-7.61-8.09-7.67-10.8-17.35-13.04-27.94-3-14.15-6.64-28.09-10.7-41.96Zm2.12-4.43c.41,1.3.78,2.6,1.17,3.92,3.49,7.18,7.32,14.09,13.11,19.78,5.75,5.64,17.63,13.7,25.82,8.21,10.03-6.72,2.74-19.52-3.08-27.23-.11-.02-.22-.03-.35-.06-.44-.08-.52-.53-.33-.83-.54-.69-1.07-1.35-1.56-1.93-5.07-6.1-10.96-10.92-17.29-15.52-.62,4.46-1.27,8.82-1.69,12.9-.08.83-.98,1.41-1.76,1.27-4.56-.8-9.28-.76-14.04-.51Zm18.79-24.65c-.14,1.67-.31,3.35-.5,5.02,11.76-1.01,22.77-6.84,29.48-16.76,7.8-11.53,7.11-24.35,3.41-37.05-1.12.94-2.22,1.9-3.33,2.86,7.75,20.94-7.07,43.72-29.06,45.92Zm-13.78,41.97c1.52,5.63,2.93,11.3,4.23,16.98,2.37,10.26,3.25,21.95,9.04,31.02,11.47,17.93,42.05,28.11,60.18,15.52,21.12-14.68,23.74-50.01,2.75-66.03-9.46-7.22-21.13-11.56-32.04-16.09-8.79-3.66-17.53-7.42-26.24-11.26,5.45,3.84,11.95,9.5,17.05,15.78,15.04-.9,30.62,7.31,38.26,20.3,7.28,12.38,6.45,28.83-4.24,39.08-11.21,10.74-29.89,10-42.45,2.2-12.52-7.77-18.96-22.52-17.29-36.97-3.52-3.04-6.6-6.62-9.26-10.53ZM509.54,1.66c-.67,10.94-6.1,20.27-14.15,27.36,18.1-6.25,40.29-5.05,58.48-3.56,9.71.8,20.33,1.92,28.5,7.81,6.87,4.93,11.18,12.93,13.62,20.88,5.14,16.86.19,35.61-13.7,46.84-35.79,28.91-72.81-13.94-97.71-39.06,4.38,11.71,1.74,23.94-4.97,33.73,13.34,5.93,25.71,14.43,37.48,23.07.43-.21.95-.2,1.45.18,38.75,29.12,87.31-5.99,120.21-28.31-7.6-19.14-15.23-38.61-27.67-55.23-6.73-8.99-14.82-16.92-24.29-22.96-8.74-5.57-17.81-8.02-27.56-10.41-2.03-.07-4.03-.3-6.07-.7-14.42.97-29.24.69-43.63.37Zm-15.61,48.55c-3.42.83-6.41,2.34-9.21,4.19,12.84,7.12,40.5,22.85,48.8,6.03,5.01-10.11-5.04-16.03-14.17-19.25-.39.12-.82-.06-1.03-.36-2.67-.89-5.19-1.54-7.18-2.02-7.03-1.65-14.15-2.76-21.29-3.85,1.27,4.74,2.85,9.35,5.57,13.42.58.87-.27,1.7-1.06,1.54-.09.13-.23.25-.42.3Zm-1.96-17c7.36.34,18.95,1.52,28.67,4.77,6.73-5.42,14.59-7.66,22.4-7.42,21.56.68,42.8,20.28,39.09,43.99-2.35,14.92-16.12,24.14-30.72,23.89-17.12-.31-30.1-13.44-36.9-28.12-9.88-1.59-19.79-6.87-28.63-11.75,7.74,7.48,15.47,14.95,23.22,22.4,8.43,8.08,17.11,16.47,27.72,21.62,23.33,11.3,51.99-.87,57.29-27.05,2.26-11.19-.65-24.23-7.52-33.42-7.98-10.64-20.88-12.41-33.28-13.43-3.39-.27-6.78-.5-10.18-.63-8-.34-16.03-.25-24.03.43-9.24.78-18.08,3.1-27.13,4.7Zm-20.3,131.79c-7.57,6.21-18.65,1.54-25.58-3.49-.53,12.05,4.28,23.79,14.41,30.95,12,8.49,31.42,9.35,41.73-2.4,9.59-10.94,7.91-27.07-.83-37.9-7.92-9.81-19.1-13.08-30.78-15.31,7.14,9.7,10.37,20.46,1.05,28.13Zm51.85-125.98c10.09,4,17.28,10.62,13.83,21.46-2.41,7.56-11,10.55-18.24,10.31-.28-.01-.56-.04-.84-.05,6.13,12.31,17,23.31,31.37,24.41,14.06,1.08,27.69-7.65,29.4-22.29,1.71-14.74-7.57-29.26-20.7-35.53-11.68-5.56-23.78-3.64-34.83,1.68Z"/>
  </g>
</svg>