<svg id="Layer_1" data-name="Layer 1" xmlns="http://www.w3.org/2000/svg" viewBox="0 0 615.14 1000"><defs><style>.cls-1{fill:#ffe0bf;}</style></defs><path class="cls-1" d="M588.71,271.86a105.75,105.75,0,0,0-46.63-30.23c16.72-30.55,9.51-67.36-14.65-86.41-18.7-14.74-45.38-17.14-68.66-6.61,1-5,9.93-53.73-20.59-85.31C434.46,59.45,419.5,44,396.59,38.76c-10.85-2.47-14.74-.64-30.19-4.49a117.37,117.37,0,0,1-32.83-12.94A111.07,111.07,0,0,1,307.57,0a111.07,111.07,0,0,1-26,21.33,117.37,117.37,0,0,1-32.83,12.94c-15.46,3.85-19.34,2-30.19,4.49C195.64,44,180.68,59.45,177,63.3c-30.52,31.58-21.59,80.31-20.6,85.31-23.27-10.53-50-8.13-68.65,6.61-24.16,19.05-31.38,55.86-14.65,86.41a105.77,105.77,0,0,0-46.64,30.23C.65,300.93-.08,335.08,0,344.05v656H615.13V344.05C615.22,335.08,614.48,300.93,588.71,271.86Z"/></svg>