<svg id="Layer_1" data-name="Layer 1" xmlns="http://www.w3.org/2000/svg" viewBox="0 0 203.35 120"><defs><style>.cls-1{fill:#ffe0bf;}</style></defs><path class="cls-1" d="M70.23,27.36a6.24,6.24,0,0,1,.51-2.62,4.49,4.49,0,0,1,.77-1.2,5.71,5.71,0,0,1,4.38-1.68c8.37,0,9.6,11.51,9.6,11.51l-.36-10.64a1.17,1.17,0,0,1-1.08.76,1.68,1.68,0,0,1-.59-.16,16.3,16.3,0,0,0-7.57-2,12,12,0,0,0-5.62,1.29,7,7,0,0,0-1.25.84,6.77,6.77,0,0,0-2.41,5.48c0,10.92,17.21,9.84,17.21,20.32,0,6.81-5.62,6.89-6.85,6.89-8.45,0-10.92-11.79-10.92-11.79L66.41,55a1.35,1.35,0,0,1,1.31-1,1.31,1.31,0,0,1,.68.16A17,17,0,0,0,77,56.68c4.74,0,10.63-2.35,10.63-9.76C87.6,36.72,70.23,36.36,70.23,27.36Z"/><path class="cls-1" d="M103.62,56.24c1.63-.32,2.83-1.39,2.83-8.88V40.58h0c0-3.74-2.39-5.34-5.26-5.34a10.3,10.3,0,0,0-5.3,1.64V47.36c0,3.74.32,5.89.8,7.13a2.51,2.51,0,0,0,2,1.75h-9.4c1.63-.32,2.79-1.39,2.79-8.88V30.58c0-3.74-.28-5.89-.8-7.13a2.42,2.42,0,0,0-2-1.71l6.61-1.12V36.08A12.28,12.28,0,0,1,104,33.13c4.18,0,6.29,2.63,6.29,7.41v6.82c0,3.74.28,5.89.8,7.13a2.43,2.43,0,0,0,2,1.75Z"/><path class="cls-1" d="M129.16,53.57a12,12,0,0,1-8.09,3c-4.22,0-6.29-2.63-6.29-7.41V43.37c0-3.74-.28-5.89-.8-7.13a2.46,2.46,0,0,0-2-1.75l6.61-1.08V49.07c0,3.74,2.39,5.34,5.26,5.34a10.24,10.24,0,0,0,5.3-1.64v-9.4c0-3.74-.28-5.89-.8-7.13a2.45,2.45,0,0,0-2-1.75L133,33.41V46.24c0,3.75.32,5.9.79,7.13a2.52,2.52,0,0,0,2,1.76l-6.66,1.07Z"/><path class="cls-1" d="M158.73,44.45c0,6.89-3.19,12.07-10.4,12.07a14.44,14.44,0,0,1-5-1.12,3.87,3.87,0,0,0-1.44-.27,3.61,3.61,0,0,0-2.67,1.11V30.58c0-3.74-.27-5.89-.79-7.13a2.42,2.42,0,0,0-2-1.71L143,20.62V37a9.91,9.91,0,0,1,7.41-3.91C156,33.13,158.73,38.67,158.73,44.45ZM154.82,47c0-1-.08-2-.16-3-.56-5.74-3.58-8.21-6.81-8.21A7.93,7.93,0,0,0,143,37.6V50.5c1.08,3.23,2.91,5.42,5.86,5.42a5.84,5.84,0,0,0,.83,0C153.75,55.36,154.82,51.38,154.82,47Z"/><path class="cls-1" d="M174.43,56.24c1.63-.32,2.83-1.39,2.83-8.88V40.58h0c0-3.74-2.39-5.34-5.26-5.34a10.24,10.24,0,0,0-5.3,1.64V47.36c0,3.74.32,5.89.79,7.13a2.52,2.52,0,0,0,2,1.75H160c1.64-.32,2.79-1.39,2.79-8.88V30.58c0-3.74-.28-5.89-.79-7.13a2.42,2.42,0,0,0-2-1.71l6.62-1.12V36.08a12.26,12.26,0,0,1,8.13-2.95c4.18,0,6.29,2.63,6.29,7.41v6.82c0,3.74.28,5.89.8,7.13a2.41,2.41,0,0,0,2,1.75Z"/><path class="cls-1" d="M203.35,53.81a3.55,3.55,0,0,1-3.3,2.43c-2.39,0-2.47-1.83-2.47-2.75V53c-1.36,1.84-3.67,3.23-7.33,3.23-3.11,0-5.5-1.75-5.5-5.38,0-8.13,12.83-5.62,12.83-12.15,0-3.82-2.07-5-4.38-5-3.47,0-4.71,3.27-4.71,5.82a6,6,0,0,0,0,.87,2.42,2.42,0,0,1-2.59-2.59c0-3.54,4.67-4.66,7.73-4.66,4.7,0,7.73,1.8,7.73,7V53.21c0,1,.4,1.2,1,1.2A1.58,1.58,0,0,0,203.35,53.81Zm-5.77-1.63V40.86c-1.79,3.75-8.29,3.63-8.29,9.68,0,2,.92,4.19,3.59,4.19A5.14,5.14,0,0,0,197.58,52.18Z"/><path class="cls-1" d="M112.23,91.64a12,12,0,0,1-8,2.92C100,94.56,98,92,98,87.21V81.53c0-3.72-.27-5.85-.79-7.08a2.41,2.41,0,0,0-2-1.73l6.56-1.07V87.17c0,3.72,2.37,5.3,5.21,5.3a10.2,10.2,0,0,0,5.26-1.62V81.53c0-3.72-.28-5.85-.79-7.08a2.44,2.44,0,0,0-2-1.73L116,71.65V84.37c0,3.71.31,5.85.79,7.07a2.47,2.47,0,0,0,2,1.74l-6.59,1.07Z"/><path class="cls-1" d="M125.46,94.29c-2.45,0-3.75-1.86-3.75-4.15V72.2h-3.6v-.55A6.44,6.44,0,0,0,125,65.92h.55v5.73h4.82v.55H125.5V90.14c0,1.7.63,2.53,2.1,2.53s2.37-1.58,2.56-1.9A4.81,4.81,0,0,1,125.46,94.29Z"/><path class="cls-1" d="M135.1,82.67c0,.12,0,.28.08.44.75,6.43,4.9,9.67,9.21,9.67a8.43,8.43,0,0,0,1.73-.15,7.12,7.12,0,0,0,2.61-1.15,6.21,6.21,0,0,0,1.94-2.21c-1.46,3.59-5,5.29-8.61,5.29-7.16,0-10.87-5.33-10.87-11.61s3.64-11.58,10.59-11.58c3.48,0,9.08,2.18,9.32,11.3Zm11.77-.55c0-2.45-1.18-10.15-6.08-10.15a5,5,0,0,0-.67,0c-3.52.44-5.14,3.8-5.14,8.38,0,.55,0,1.15.08,1.74Z"/><path class="cls-1" d="M157.54,82.67c0,.12,0,.28.08.44.75,6.43,4.9,9.67,9.21,9.67a8.43,8.43,0,0,0,1.73-.15,7.12,7.12,0,0,0,2.61-1.15,6.21,6.21,0,0,0,1.94-2.21c-1.46,3.59-5,5.29-8.61,5.29-7.15,0-10.87-5.33-10.87-11.61s3.64-11.58,10.59-11.58c3.48,0,9.08,2.18,9.32,11.3Zm11.77-.55c0-2.45-1.18-10.15-6.08-10.15a5,5,0,0,0-.67,0c-3.52.44-5.14,3.8-5.14,8.38,0,.55,0,1.15.08,1.74Z"/><path class="cls-1" d="M190.65,76.63a3,3,0,0,0-2.53-2.45h0c-.12,0-.27,0-.47,0h-.24c-2.29,0-4.54,1.54-6,4.23v7.11c0,3.71.27,5.84.75,7.07a2.49,2.49,0,0,0,2,1.74h-9.36c1.62-.32,2.77-1.39,2.77-8.81V81.57c0-3.72-.28-5.85-.76-7.08a2.46,2.46,0,0,0-2-1.73l6.6-1.07v5.92c1.1-2.68,3.75-6.24,7.46-6.24H189a2.89,2.89,0,0,1,3.12,3C192.15,75.92,191.32,76.63,190.65,76.63Z"/><path class="cls-1" d="M88.68,93.06a1.28,1.28,0,0,0,0-.19c-.08-.93-.74-2.38-2.4-4.51L78.13,77.1l-3.51,4v4.34c0,3.72.31,5.85.78,7.07l.15.33a2.33,2.33,0,0,0,1.83,1.42H68.06a2.28,2.28,0,0,0,1.47-.83,2.83,2.83,0,0,0,.37-.59c.58-1.18.92-3.33.92-7.4V68.85c0-3.72-.28-5.85-.79-7.08a2.39,2.39,0,0,0-2-1.7h9.32c-1.58.32-2.76,1.34-2.76,8.78V80.3l3.19-3.63,2.57-2.93,4.75-5.41c1.81-2,2.52-3.83,2.52-5.25a2.87,2.87,0,0,0-2.76-3h9.87c-1.18.2-3,1.42-6.44,5.46L80.7,74.17,90.73,88c3,3.82,4.94,5.92,6.36,6.28H87.77A1.13,1.13,0,0,0,88.68,93.06Z"/><path class="cls-1" d="M82.12,102.5a15.36,15.36,0,0,1,2.07-.71,7.46,7.46,0,0,1,1.48-.26c.37,0,.57.07.58.21l0,.06a.81.81,0,0,0-.62.29,3,3,0,0,0-.5,1.12q-.27,1-.48,2.22c-.13.78-.21,1.21-.23,1.29s0,.18,0,.3l-.06.34c2-.18,3.35-.28,4-.31a22.63,22.63,0,0,1,1.37-4.72c.55-1.25,1.07-1.88,1.56-1.88a.24.24,0,0,1,.27.27,27.65,27.65,0,0,0-1.73,5c-.41,1.68-.72,3.32-1,4.91a30.57,30.57,0,0,0-.33,4.06.21.21,0,0,1-.24.24q-.6,0-.6-1.38a35.8,35.8,0,0,1,.55-6.1l-2.6.32q-.93.13-1.41.18a18.68,18.68,0,0,1-1.65,5.6,9,9,0,0,1-1,1.38,3.73,3.73,0,0,1-2.93,1.26,3,3,0,0,1-2.15-.75,2.82,2.82,0,0,1-.94-1.83q0-.36,0-.9a7.11,7.11,0,0,1,.19-1.44,3.48,3.48,0,0,1,1-1.66,2.32,2.32,0,0,1,1.7-.75.56.56,0,0,1,.41.15.86.86,0,0,1,.21.47A2.69,2.69,0,0,0,76.59,111a3.9,3.9,0,0,0-.59,2,3.79,3.79,0,0,0,.17,1.08,2.1,2.1,0,0,0,2.25,1.52,3,3,0,0,0,2.72-1.8,11.28,11.28,0,0,0,1-2.29q.48-1.65.84-3.39a9.14,9.14,0,0,1-1,.06.45.45,0,0,1-.49-.42c0-.22,0-.35.13-.4h0c0,.08.18.11.41.11s.57,0,1,0c.22-1,.39-1.82.52-2.35a12,12,0,0,1,.56-1.75A3.79,3.79,0,0,1,85,102a9.13,9.13,0,0,0-3,1.09,3.92,3.92,0,0,0-1.15,1,2.09,2.09,0,0,0-.44,1.25c0,.29.11.44.34.44,0,.16-.17.24-.38.24a.75.75,0,0,1-.54-.24.94.94,0,0,1-.23-.67,2,2,0,0,1,.72-1.45A5.52,5.52,0,0,1,82.12,102.5Z"/><path class="cls-1" d="M92.42,114.23c-.94,0-1.41-.74-1.41-2.21a7.74,7.74,0,0,1,.65-2.9,5.8,5.8,0,0,1,2.38-3,2.64,2.64,0,0,1,1.19-.34,1.39,1.39,0,0,1,.86.24,1.07,1.07,0,0,1,.4.48l.11.22c0,.2-.13.3-.29.3s-.29,0-.32-.13-.06-.16-.09-.23a1.67,1.67,0,0,0-.24-.25.65.65,0,0,0-.43-.17c-.75,0-1.42.67-2,2a10.8,10.8,0,0,0-1,4.35c0,.69.13,1,.41,1s.52-.24.91-.73a14.9,14.9,0,0,0,1.25-1.82c.75-1.26,1.36-2.35,1.83-3.28s.79-1.23,1.2-1.23q.33,0,.33.39c-.11.22-.24.53-.4.93a18.07,18.07,0,0,0-.63,2.38,16,16,0,0,0-.4,3.55c0,1.17.18,1.76.53,1.76a.51.51,0,0,0,.38-.18,1.51,1.51,0,0,0,.31-.54.23.23,0,0,1,.24-.19.1.1,0,0,1,.1.06s0,.09,0,.17a2.35,2.35,0,0,1-.12.33,2.2,2.2,0,0,1-.37.57.73.73,0,0,1-.59.36c-.48,0-.85-.31-1.1-.94a5.79,5.79,0,0,1-.39-2.22,15.18,15.18,0,0,1,.19-2.47h-.17Q93.51,114.23,92.42,114.23Z"/><path class="cls-1" d="M102.42,112.65c0,.69.19,1,.55,1s1-.63,1.54-1.89a9.85,9.85,0,0,0,1-4c0-.86-.23-1.29-.68-1.29s-.94.35-1.48,1.05a12.26,12.26,0,0,0-1.43,2.42c-.42.92-.77,1.79-1.07,2.61a10.73,10.73,0,0,0-.54,1.81q-.09.6-.15.9c0,.2-.08.51-.16,1s-.14.76-.2,1-.15.52-.25.87a4.39,4.39,0,0,1-.32.8,6.12,6.12,0,0,1-.37.57,1.23,1.23,0,0,1-1,.57c-.55,0-.83-.31-.83-.94q0-1.68,2.57-6.32c.18-1.26.35-2.28.54-3a23,23,0,0,1,1.27-4.28c.45-1,.86-1.52,1.23-1.52q.27,0,.27.33a55.14,55.14,0,0,0-1.69,5.52l-.11.39h.22c1.31-2.83,2.53-4.25,3.69-4.25s1.61.85,1.61,2.55a8.23,8.23,0,0,1-.94,3.71c-.7,1.39-1.53,2.09-2.5,2.09-.79,0-1.19-.52-1.19-1.55a4.84,4.84,0,0,1,.46-1.89,3.54,3.54,0,0,1,1.19-1.58.16.16,0,0,1,.25.06.12.12,0,0,1,0,.12,3.41,3.41,0,0,0-1,1.51A5.08,5.08,0,0,0,102.42,112.65Zm-5,6.25c0,.35.12.52.37.52.52,0,.9-.7,1.15-2.09q.14-.72.48-3.63a21.48,21.48,0,0,0-1.93,4.67A2.27,2.27,0,0,0,97.44,118.9Z"/><path class="cls-1" d="M110.72,112.65c0,.69.18,1,.54,1s1-.63,1.55-1.89a9.83,9.83,0,0,0,1-4c0-.86-.22-1.29-.67-1.29s-1,.35-1.49,1.05a12.77,12.77,0,0,0-1.43,2.42c-.41.92-.77,1.79-1.07,2.61a10.73,10.73,0,0,0-.54,1.81c-.06.4-.11.7-.14.9s-.09.51-.17,1-.14.76-.2,1-.15.52-.25.87a3.77,3.77,0,0,1-.32.8,6.12,6.12,0,0,1-.37.57,1.23,1.23,0,0,1-1,.57c-.55,0-.82-.31-.82-.94,0-1.12.85-3.23,2.57-6.32a30.44,30.44,0,0,1,.53-3,23,23,0,0,1,1.27-4.28c.46-1,.86-1.52,1.23-1.52q.27,0,.27.33c-.54,1.45-1.11,3.29-1.69,5.52l-.11.39h.23q2-4.25,3.68-4.25c1.07,0,1.61.85,1.61,2.55a8.1,8.1,0,0,1-.94,3.71c-.7,1.39-1.53,2.09-2.5,2.09-.79,0-1.18-.52-1.18-1.55a5,5,0,0,1,.45-1.89,3.54,3.54,0,0,1,1.19-1.58.18.18,0,0,1,.26.06.14.14,0,0,1,0,.12,3.49,3.49,0,0,0-1,1.51A5,5,0,0,0,110.72,112.65Zm-5,6.25c0,.35.12.52.38.52.51,0,.89-.7,1.14-2.09q.15-.72.48-3.63a21.48,21.48,0,0,0-1.93,4.67A2.27,2.27,0,0,0,105.73,118.9Z"/><path class="cls-1" d="M116.23,119.59a2.7,2.7,0,0,0,2.42-1.46,10.66,10.66,0,0,0,1.16-3.2,5.68,5.68,0,0,0-4.76,2.36c-.07.11-.18.12-.33,0a.11.11,0,0,1-.06-.17,6.15,6.15,0,0,1,2-1.89,6.75,6.75,0,0,1,3.21-.85c.12-.57.24-1.24.36-2s.24-1.51.39-2.23h-.16q-2.22,4-3.39,4c-.87,0-1.3-.67-1.3-2a10.33,10.33,0,0,1,.86-4c.57-1.36,1.09-2.08,1.56-2.19h.1c.19,0,.29.12.29.37s-.28.71-.48,1.21-.45,1.31-.77,2.45a10.56,10.56,0,0,0-.48,2.66c0,.63.14,1,.41,1s.83-.56,1.54-1.66a41.39,41.39,0,0,0,2.71-4.94c.33-.7.69-1,1.06-1s.36.13.36.39a13.29,13.29,0,0,0-.79,2.24c-.3,1.1-.56,2.21-.75,3.32s-.36,2-.5,2.61c.87.15,1.37.53,1.51,1.13a2.3,2.3,0,0,1,0,.42.62.62,0,0,1-.21.47.57.57,0,0,1-.36.19,1.59,1.59,0,0,0,0-.42,1.42,1.42,0,0,0-.11-.5,1.44,1.44,0,0,0-.35-.43,1.68,1.68,0,0,0-.67-.33c-.88,3.32-2.41,5-4.58,5a1.86,1.86,0,0,1-1.87-1,.28.28,0,0,1,0-.09c0-.07.06-.11.18-.13a.24.24,0,0,1,.26.12C115,119.36,115.48,119.59,116.23,119.59Z"/><path class="cls-1" d="M134.89,102.5a15.36,15.36,0,0,1,2.07-.71,7.46,7.46,0,0,1,1.48-.26c.37,0,.57.07.58.21l0,.06a.81.81,0,0,0-.62.29,3,3,0,0,0-.5,1.12q-.27,1-.48,2.22c-.13.78-.21,1.21-.23,1.29s0,.18-.05.3l-.06.34c2-.18,3.35-.28,4-.31a22.63,22.63,0,0,1,1.37-4.72c.55-1.25,1.07-1.88,1.56-1.88a.24.24,0,0,1,.27.27,28.48,28.48,0,0,0-1.74,5c-.4,1.68-.72,3.32-.94,4.91a30.57,30.57,0,0,0-.33,4.06.21.21,0,0,1-.24.24q-.6,0-.6-1.38a35.8,35.8,0,0,1,.55-6.1l-2.6.32q-.93.13-1.41.18a18.68,18.68,0,0,1-1.65,5.6,9,9,0,0,1-1,1.38,3.73,3.73,0,0,1-2.93,1.26,3,3,0,0,1-2.15-.75,2.82,2.82,0,0,1-.94-1.83q0-.36,0-.9a7.11,7.11,0,0,1,.19-1.44,3.48,3.48,0,0,1,.95-1.66,2.32,2.32,0,0,1,1.7-.75.56.56,0,0,1,.41.15.86.86,0,0,1,.21.47,2.69,2.69,0,0,0-2.43,1.52,3.9,3.9,0,0,0-.59,2,3.79,3.79,0,0,0,.17,1.08,2.1,2.1,0,0,0,2.25,1.52,3,3,0,0,0,2.72-1.8,11.28,11.28,0,0,0,1-2.29q.48-1.65.84-3.39a9.14,9.14,0,0,1-1,.06.45.45,0,0,1-.49-.42c0-.22,0-.35.13-.4h.05c.05.08.18.11.41.11s.57,0,1,0c.22-1,.39-1.82.52-2.35a12,12,0,0,1,.56-1.75,3.79,3.79,0,0,1,.81-1.36,9,9,0,0,0-3,1.09,3.92,3.92,0,0,0-1.15,1,2.09,2.09,0,0,0-.44,1.25c0,.29.11.44.34.44a.34.34,0,0,1-.38.24.75.75,0,0,1-.54-.24.94.94,0,0,1-.23-.67,2,2,0,0,1,.72-1.45A5.52,5.52,0,0,1,134.89,102.5Z"/><path class="cls-1" d="M145.86,114.38c-1.41,0-2.11-1-2.11-2.9a7.12,7.12,0,0,1,.82-3.25c.7-1.37,1.52-2.06,2.48-2.06a.56.56,0,0,1,.35.11.54.54,0,0,1,.19.3c-.72,0-1.35.58-1.87,1.73a8.14,8.14,0,0,0-.79,3.41q0,2,1.11,2c.43,0,.87-.32,1.32-1a8.24,8.24,0,0,0,1.14-2.54,11.52,11.52,0,0,0,.46-3.17v-.2a3,3,0,0,1-.88-.86,1.59,1.59,0,0,1-.34-.76.73.73,0,0,1,.65-.66c.22,0,.43.19.63.58a4.18,4.18,0,0,1,.43,1.32,1.77,1.77,0,0,0,.94.36,1.29,1.29,0,0,0,.64-.14.65.65,0,0,1-.17.43.67.67,0,0,1-.53.19,2.55,2.55,0,0,1-.83-.17,12.21,12.21,0,0,1-.49,3.3,8.43,8.43,0,0,1-1.34,2.79A2.35,2.35,0,0,1,145.86,114.38Z"/><path class="cls-1" d="M155,112.14a23.93,23.93,0,0,1,.77-5.33c0-.12,0-.17-.1-.16a.42.42,0,0,0-.22.11,8,8,0,0,0-1.67,2.34,30.53,30.53,0,0,0-1.45,3.13,8.37,8.37,0,0,0-.55,1.65c0,.14-.09.21-.26.21q-.51,0-.51-1.35a19.39,19.39,0,0,1,.51-4.64c.35-1.38.76-2.06,1.25-2.06q.33,0,.33.36a29,29,0,0,0-1.13,5.1h.15q2.27-5.66,4.17-5.65a.72.72,0,0,1,.82.8,28.39,28.39,0,0,0-1.17,4.73h.14c.38-.8.76-1.53,1.14-2.18a10.48,10.48,0,0,1,1.35-1.84,2.06,2.06,0,0,1,1.38-.84c.55,0,.83.26.83.78a19.85,19.85,0,0,0-.9,5.78c0,1.21.19,1.81.55,1.81a.57.57,0,0,0,.38-.16.51.51,0,0,1,.26-.16c.16,0,.15.12,0,.38a1.94,1.94,0,0,1-.3.32.71.71,0,0,1-.45.21c-.45,0-.8-.31-1-.94a6.58,6.58,0,0,1-.37-2.42,17.19,17.19,0,0,1,.55-4.61q0-.12-.09-.12a.47.47,0,0,0-.2.1A11.13,11.13,0,0,0,157,110.6a11.32,11.32,0,0,0-1.2,2.68q0,.21-.27.21C155.19,113.49,155,113,155,112.14Z"/><path class="cls-1" d="M166.71,105.92c.86,0,1.3.5,1.3,1.52a3.62,3.62,0,0,1-.58,1.83,3,3,0,0,1-2.64,1.6.91.91,0,0,1-.43-.09.51.51,0,0,1-.26-.26,2.79,2.79,0,0,0,2.23-1.4,3.59,3.59,0,0,0,.82-2.07c0-.47-.19-.71-.56-.71-.76,0-1.46.59-2.11,1.77a8.11,8.11,0,0,0-1,3.94c0,1.14.33,1.83,1,2.06a1.65,1.65,0,0,0,.48.06,1.49,1.49,0,0,0,.62-.14,2.47,2.47,0,0,0,.55-.35,4.17,4.17,0,0,0,.73-.91.27.27,0,0,1,.26-.14c.2,0,.3,0,.29.11a2.28,2.28,0,0,1-.39.63,5.24,5.24,0,0,1-.61.71,2.78,2.78,0,0,1-.74.48,2.35,2.35,0,0,1-3.23-1.5,4.81,4.81,0,0,1-.15-1.2,6.77,6.77,0,0,1,.53-2.5,6,6,0,0,1,2.31-3A3.2,3.2,0,0,1,166.71,105.92Z"/><path class="cls-1" d="M170.11,113.64q0,1.2.78,1.2c.48,0,.92-.39,1.34-1.18a6.29,6.29,0,0,0,.63-3,13.81,13.81,0,0,0-.32-2.47,14.21,14.21,0,0,1-.32-2.08,2.88,2.88,0,0,1,0-.64c-.15.24-.58,1-1.29,2.39a33.42,33.42,0,0,1-1.88,3.21.18.18,0,0,1-.19,0,.35.35,0,0,1-.2-.1s-.08-.09-.08-.11a.08.08,0,0,1,0,0,33,33,0,0,0,1.88-3.21,26.44,26.44,0,0,1,1.79-3.06c.48-.68.95-1,1.42-1q.36,0,.36.3a1,1,0,0,1-.29.55,3.22,3.22,0,0,0-.93,2.14,12.27,12.27,0,0,0,.5,2.51,12.07,12.07,0,0,1,.5,2.7,4,4,0,0,1-.84,2.56,2.41,2.41,0,0,1-1.9,1.06c-1,0-1.51-.58-1.51-1.73a5.6,5.6,0,0,1,.79-2.73A5.4,5.4,0,0,1,172,109c.1-.06.17,0,.19.12s0,.25-.06.3a4.16,4.16,0,0,0-1.57,2.19A5.68,5.68,0,0,0,170.11,113.64Z"/><path class="cls-1" d="M.84,34V89.51a4,4,0,0,0,3.93,3.95H69.53a2.28,2.28,0,0,1-1.47.83H4.77A4.78,4.78,0,0,1,0,89.51V34a4.81,4.81,0,0,1,1.64-3.61L35.31,1.17a4.81,4.81,0,0,1,6-.21l28.86,22,1,.77a4.54,4.54,0,0,0-.45.69L40.83,1.63a4,4,0,0,0-5,.15L2.19,31.07A3.9,3.9,0,0,0,.84,34Z"/><path class="cls-1" d="M22.73,86.73a.27.27,0,0,1-.22-.11,14.19,14.19,0,0,1-2.34-11.16c1.5-8.15,8.73-16.18,15.22-20.52C36.8,53.44,38.92,52.72,41,52c2.84-1,5.53-1.87,6.13-4.84a2.17,2.17,0,0,1,2-1.58.26.26,0,0,1,.23.21s0,0,0,.07c0-.13.09-.26.13-.39.26-.78.58-1.76,1.83-1.56a3,3,0,0,1,2.06.32,3.33,3.33,0,0,1,1.29.19,2,2,0,0,1,1.38,1.81,4.93,4.93,0,0,1,1.09-1,.24.24,0,0,1,.22,0,.26.26,0,0,1,.17.14,3.37,3.37,0,0,1,.11,1.72,1.92,1.92,0,0,0,0,.76s.14.08.82-.26a.26.26,0,0,1,.21,0,.25.25,0,0,1,.16.14,1.34,1.34,0,0,1-.1,1.18l0,.08a.85.85,0,0,1,.46.19.38.38,0,0,1,.11.31l.44.25c.59.5.83.94.78,1.4-.09.76-1,1.23-1.82,1.64l-.2.11c.47,1.16.42,2-.15,2.53l-.06,0a2.77,2.77,0,0,1-2.79-.19h0A2.68,2.68,0,0,1,56,56.87a.26.26,0,0,1-.1.19.25.25,0,0,1-.2.06c-5.14-.73-7.28-2.11-8.12-3.34a3.47,3.47,0,0,1-.19.77.26.26,0,0,1-.21.16.24.24,0,0,1-.25-.1c-1-1.33-1.34-2.31-.9-2.92a1.14,1.14,0,0,1,.37-.32,2.55,2.55,0,0,0-.43-.44.28.28,0,0,1-.32-.29c0-.06,0-.12,0-.18a15.27,15.27,0,0,1-4.49,2.06c-2,.68-4,1.38-5.41,2.82-6.44,4.32-13.56,12.22-15,20.22a13.65,13.65,0,0,0,2.25,10.75.26.26,0,0,1-.06.37A.23.23,0,0,1,22.73,86.73Zm25-35.05a2.36,2.36,0,0,0-.09.52c-.06,2,2.78,3.58,7.83,4.35C55.2,55,52.58,53.13,50,52.21A9.14,9.14,0,0,0,47.68,51.68Zm6.44,1a4.1,4.1,0,0,0,1.62,2.15A2.23,2.23,0,0,0,58,55c.39-.38.35-1.1-.1-2.13A.26.26,0,0,1,58,52.5l.43-.22c.66-.34,1.48-.75,1.53-1.24,0-.25-.16-.56-.56-.9-.2-.12-.39-.23-.56-.31a3.13,3.13,0,0,1-.55.11.27.27,0,0,1-.3-.23.31.31,0,0,1,0-.1h0a1.18,1.18,0,0,0-.27,0c-.47.15-.74.73-1,1.35-.41.89-.88,1.9-2.1,2a.35.35,0,0,1-.17-.06A1.74,1.74,0,0,1,54.12,52.64Zm-7.47-.83a.73.73,0,0,0-.23.19c-.23.33,0,1,.57,1.86A3.12,3.12,0,0,0,46.65,51.81Zm1.24-.64a9.9,9.9,0,0,1,2.29.54,14.49,14.49,0,0,1,3.93,2.14,4.6,4.6,0,0,1-.71-2.34A1.33,1.33,0,0,0,53,51c-.69,0-.83-.1-.87-.27a.31.31,0,0,1,.22-.37,1.13,1.13,0,0,1,.77.1h.11a2,2,0,0,0-.45-.85l-.07,0a.26.26,0,0,1-.28-.21.44.44,0,0,1,0-.1,2.16,2.16,0,0,0-1.26-.25,3.91,3.91,0,0,0-1.56.48,1.58,1.58,0,0,1-.35.57,2.58,2.58,0,0,1-1.11.65A3.11,3.11,0,0,0,47.89,51.17Zm6.94-1.61h0c-.27,0-.54.34-.68.8a2,2,0,0,0,.53,2c.83-.09,1.18-.84,1.55-1.64s.64-1.39,1.31-1.62a.26.26,0,0,1,.14-.11.84.84,0,0,1,.24-.06.85.85,0,0,0,.38-.37.81.81,0,0,0,.12-.42c-.5.21-.83.24-1.06.08s-.28-.71-.21-1.27a4.07,4.07,0,0,0,0-1.1,4.87,4.87,0,0,0-1.24,1.54.27.27,0,0,1-.34.13.28.28,0,0,1-.16-.32c.33-1.18,0-2-.91-2.31a2.63,2.63,0,0,0-.71-.15,4.2,4.2,0,0,1-.34,2.35l0,.1a2.69,2.69,0,0,1,1.79.63,2.48,2.48,0,0,1,1,2.67.26.26,0,0,1-.24.18.25.25,0,0,1-.26-.15C55.46,49.92,55.13,49.56,54.83,49.56ZM46.73,51l.17.22a2.71,2.71,0,0,1,.41,0l.1-.21A3.91,3.91,0,0,1,46.73,51Zm5.81-.48Zm-6.11-.08a3.71,3.71,0,0,0,1.4-.09,5,5,0,0,1,1.31-1.1,1.39,1.39,0,0,0,0-.45A5.69,5.69,0,0,0,46.43,50.41ZM53,49.09a2.31,2.31,0,0,1,.68,1,1.38,1.38,0,0,1,1.11-1,1.17,1.17,0,0,1,1,.53,2.43,2.43,0,0,0-.88-1.27,1.79,1.79,0,0,0-1.65-.45A7.14,7.14,0,0,0,53,49.09Zm-3.68-.91a.27.27,0,0,1,.25.18,1.91,1.91,0,0,1,.13.58,4.28,4.28,0,0,1,1.44-.38,2.69,2.69,0,0,1,1.22.16,1.42,1.42,0,0,1,.45-1.21c.05-.18.1-.36.16-.53.28-.92.56-1.79.24-2.19a5.4,5.4,0,0,0-3.4,1.46,1.87,1.87,0,0,1-.58.83h0a5.19,5.19,0,0,1-1.53,1.64l-.22.18a6.09,6.09,0,0,1,1.78-.71Zm-.44-2a1.79,1.79,0,0,0-1.25,1.2,6.08,6.08,0,0,1-.31,1l.05,0C48.16,47.66,48.92,47,48.86,46.13ZM51,44.43c-.49,0-.7.32-.9.85a6.23,6.23,0,0,1,1.94-.85,6.28,6.28,0,0,0-.72,0h-.07Z"/><path class="cls-1" d="M37.88,59.65h-.26a3.13,3.13,0,0,1-2.79-2.3h0c-.06-.29-.22-1.06.21-1.42s1.42-.44,5.08,2.41a.27.27,0,0,1,.11.2.29.29,0,0,1-.09.21A3.52,3.52,0,0,1,37.88,59.65Zm-2.53-2.42a2.57,2.57,0,0,0,2.32,1.88,2.72,2.72,0,0,0,1.86-.56c-3.29-2.52-4-2.35-4.14-2.23s-.17.29,0,.91l-.26.05Z"/><path class="cls-1" d="M42.86,57.71a7.74,7.74,0,0,1-3.53-.82c-1.15-.59-3-2-2.65-2.78h0a.62.62,0,0,1,.4-.31,6.86,6.86,0,0,1,4.05,1,7.8,7.8,0,0,1,2.63,2.46.24.24,0,0,1,0,.26.25.25,0,0,1-.21.15Zm-5.7-3.37a5.41,5.41,0,0,0,2.42,2.08,7.06,7.06,0,0,0,3.46.76,7.16,7.16,0,0,0-2.17-1.91C39.22,54.33,37.39,54.13,37.16,54.34Z"/><path class="cls-1" d="M27.7,50.43h-.06a7.11,7.11,0,0,1-4-2.69,6.79,6.79,0,0,1-1.12-2.63.26.26,0,0,1,.1-.26.28.28,0,0,1,.29,0A12.76,12.76,0,0,1,25,46.25a12.35,12.35,0,0,1,2.77,3.29.16.16,0,0,1,0,.08,3.8,3.8,0,0,0,.12.46.29.29,0,0,1-.06.27A.32.32,0,0,1,27.7,50.43Zm-4.51-4.85a6.28,6.28,0,0,0,.89,1.84,6.42,6.42,0,0,0,3.25,2.35h0a11.76,11.76,0,0,0-2.63-3.11A11.51,11.51,0,0,0,23.19,45.58Z"/><path class="cls-1" d="M29.37,51.46a2.57,2.57,0,0,1-1.87-1.13.41.41,0,0,1-.05-.09c-.05-.15-.09-.33-.13-.51a.28.28,0,0,1,.14-.29L27.38,49a.26.26,0,0,1,.21-.31.26.26,0,0,1,.31.2l.06.23a1.85,1.85,0,0,1,0-.23c.37-1.6,1.91-2.89,4.58-3.83a.26.26,0,0,1,.35.28c-.43,3.54-1.92,6.13-3.54,6.16Zm-1.09-1.07a1.69,1.69,0,0,0,1.1.54c1.09,0,2.46-1.87,3-5.26-2.23.86-3.51,2-3.82,3.3a4.94,4.94,0,0,0-.1.86A.82.82,0,0,1,28.28,50.39Z"/><path class="cls-1" d="M27.64,49.17a.27.27,0,0,1-.26-.2l-.12-.54c-.29-1.34-.63-3.2-.83-4.38-.12-.75-.12-.8-.12-.82a.26.26,0,0,1,.26-.26.27.27,0,0,1,.27.25c0,.06.05.33.12.75.19,1.17.53,3,.82,4.35l.12.53a.28.28,0,0,1-.2.32Zm-.8-5.94h0Z"/><path class="cls-1" d="M27.53,48.56a.27.27,0,0,1-.26-.22c-.13-.73-.27-1.46-.4-2.2s-.26-1.33-.35-1.82a.26.26,0,0,1,.19-.31.26.26,0,0,1,.32.18c.1.33.19.66.27,1,3-4.93,3.45-4.74,3.75-4.59a.46.46,0,0,1,.23.27,5.64,5.64,0,0,1-.73,3.19h0a8.37,8.37,0,0,1-1.5,2A4,4,0,0,0,27.85,48c0,.1,0,.2-.06.3a.26.26,0,0,1-.25.23Zm-.14-2.5c.07.36.14.73.2,1.1a6,6,0,0,1,1.07-1.41,7.91,7.91,0,0,0,1.42-1.92h0a6.28,6.28,0,0,0,.72-2.69C30.52,41.35,29.7,42.25,27.39,46.06Z"/><path class="cls-1" d="M27.58,49.94a.28.28,0,0,1-.26-.21,4.37,4.37,0,0,1-.06-1.39v-.09a.26.26,0,0,1,.3-.22.26.26,0,0,1,.22.3v.07a4.22,4.22,0,0,0,.06,1.22.27.27,0,0,1-.21.32Z"/><path class="cls-1" d="M26.48,43.69h0a5.72,5.72,0,0,1-3.58-2.15,5.46,5.46,0,0,1-1.23-3.19.55.55,0,0,1,.23-.38.6.6,0,0,1,.53,0c1,.31,3.22,2.62,4.34,5.39a.27.27,0,0,1,0,.26A.25.25,0,0,1,26.48,43.69Zm-4.33-5.27h0A5.47,5.47,0,0,0,26,43.06C24.8,40.37,22.65,38.42,22.15,38.42Z"/><path class="cls-1" d="M26.78,44.53a.26.26,0,0,1-.26-.2l-.08-.23q-.09-.29-.21-.57a.43.43,0,0,1,0-.11,34.13,34.13,0,0,0-.27-5.34,35.37,35.37,0,0,0-1.06-5.21.27.27,0,0,1,.06-.26.26.26,0,0,1,.26-.07c2.26.59,2.15,2.62,2,4.48a9.24,9.24,0,0,1,1.46-2.43h-.05a.26.26,0,0,1-.25-.28,5.64,5.64,0,0,1,4.38-5.16.25.25,0,0,1,.26.09.25.25,0,0,1,.05.26,12.47,12.47,0,0,1-2.78,4,23.4,23.4,0,0,0-1.59,1.89,7.55,7.55,0,0,1,1.18-.93c1.65-1.07,2.16-1.11,2.42-.84s.68.72-5,7.12a.25.25,0,0,1-.24.09.26.26,0,0,1-.2-.15,2.75,2.75,0,0,1-.15-.36c.06,1,.08,2,.06,3l.2.54.08.26a.25.25,0,0,1,0,.08A.26.26,0,0,1,26.78,44.53Zm.28-6.35a5.77,5.77,0,0,0,.11,1.93c3.94-4.48,4.58-5.71,4.65-6a5.72,5.72,0,0,0-1.7.88,7.84,7.84,0,0,0-2.73,3.1A.27.27,0,0,1,27.06,38.18Zm-1.54-5a34.24,34.24,0,0,1,.95,4.8c0,.13,0,.25.05.37,0-.39.06-.78.1-1.18C26.8,35.42,27,33.85,25.52,33.21Zm6.8-3.39a5,5,0,0,0-2.11,1.36,5.09,5.09,0,0,0-1.34,3.13c.32-.39.65-.75,1-1.12A13.69,13.69,0,0,0,32.32,29.82Z"/><path class="cls-1" d="M26.78,44.51a.25.25,0,0,1-.27-.24c-.1-.52-.17-.89-.19-1s0,0,0-.08a.26.26,0,0,1,.26-.26.26.26,0,0,1,.26.21c0,.09.07.32.21,1A.3.3,0,0,1,26.78,44.51Z"/><path class="cls-1" d="M27.64,49.17a.26.26,0,0,1-.26-.21l-.11-.62a.26.26,0,1,1,.52-.1l.11.62a.26.26,0,0,1-.21.31Z"/><path class="cls-1" d="M26.44,85a.26.26,0,0,1-.25-.18,23,23,0,0,1-.65-13.57,22.44,22.44,0,0,1,1.92-4.45A17,17,0,0,0,29.39,62a18.81,18.81,0,0,0-1.55-11.7.27.27,0,1,1,.49-.21,19.38,19.38,0,0,1,1.58,12,17.83,17.83,0,0,1-2,5,21.36,21.36,0,0,0-1.88,4.35c-1.14,3.94-.92,8.4.64,13.26a.25.25,0,0,1-.17.33Z"/><path class="cls-1" d="M34.92,27.44a1.34,1.34,0,0,1-.35,0,1.79,1.79,0,0,1-1.17-1.79,2.5,2.5,0,0,1,.05-.47A5.25,5.25,0,0,1,34.59,23l0-.07a7.38,7.38,0,0,0,1-1.58,2.7,2.7,0,0,0,.17-.6l0-.33a2,2,0,0,1,.33-1.1,1.67,1.67,0,0,1,1.5-.52,4.37,4.37,0,0,1,1.6.39h0a4,4,0,0,1,.85.5,2.12,2.12,0,0,1,.08-1.34,2.78,2.78,0,0,1,1.12-1.11,4.94,4.94,0,0,0,.6-.45,1.35,1.35,0,0,0,.33-.41,3.62,3.62,0,0,0,.13-.35c0-.11.07-.23.12-.34a1,1,0,0,1,.73-.65,1.13,1.13,0,0,1,1,.54,3.71,3.71,0,0,1,.75,2.18,6.39,6.39,0,0,1-1.27,3.4A16.62,16.62,0,0,1,42,23.58a.66.66,0,0,0,0,.14.26.26,0,0,1-.07.15,1.56,1.56,0,0,0,.25-.17.27.27,0,0,1,.38,0,.26.26,0,0,1,0,.37,2.55,2.55,0,0,1-1.69.55,6.5,6.5,0,0,1-.63.44l-.27.17a7.17,7.17,0,0,0,2.93-1.33,5.17,5.17,0,0,0,2-4.22.27.27,0,0,1,.25-.28.25.25,0,0,1,.28.25,5.72,5.72,0,0,1-2.23,4.67A8.28,8.28,0,0,1,38.23,26a.25.25,0,0,1-.27-.22.28.28,0,0,1,.18-.3,7.13,7.13,0,0,0,1.75-.81l0,0a3.41,3.41,0,0,0-1.57.15,3.56,3.56,0,0,0-1.27,1.18,6.34,6.34,0,0,1-1,1A2,2,0,0,1,34.92,27.44Zm2.61-8.1a1.16,1.16,0,0,0-.91.32,1.62,1.62,0,0,0-.22.83c0,.12,0,.24,0,.36a2.77,2.77,0,0,1-.2.72,7.62,7.62,0,0,1-1.1,1.7l-.05.07a5,5,0,0,0-1,1.9,2.45,2.45,0,0,0,0,.38,1.25,1.25,0,0,0,.78,1.26,1.31,1.31,0,0,0,1.09-.32,5.36,5.36,0,0,0,.88-.95,4,4,0,0,1,1.47-1.34,4.18,4.18,0,0,1,2-.19l.25,0h.28a8.2,8.2,0,0,0,.71-.64l-.89-2.77a4,4,0,0,0-1.37-1h0a4,4,0,0,0-1.39-.34ZM41.61,24l-.07.06L41.7,24h-.09Zm-.69-3.52a4.6,4.6,0,0,1,1,2.39,16.53,16.53,0,0,0,1.42-1.92,5.88,5.88,0,0,0,1.19-3.11,3.14,3.14,0,0,0-.64-1.85c-.09-.12-.32-.39-.54-.34a.51.51,0,0,0-.33.33c0,.1-.08.2-.11.3a2.41,2.41,0,0,1-.16.42,1.87,1.87,0,0,1-.44.56,5.21,5.21,0,0,1-.66.5,2.38,2.38,0,0,0-.94.89,2.42,2.42,0,0,0,.14,1.67Z"/><path class="cls-1" d="M33.23,25.47a1.82,1.82,0,0,1-1.36-.41,1.89,1.89,0,0,1-.41-1.41,11.13,11.13,0,0,1,.33-2.5,1.22,1.22,0,0,1,.62-.91.92.92,0,0,1,.33-.06,1.83,1.83,0,0,1,.75.23,9.27,9.27,0,0,0,2.47.8.27.27,0,0,1,.22.3.26.26,0,0,1-.31.22,9.84,9.84,0,0,1-2.61-.84,1.57,1.57,0,0,0-.54-.18l-.1,0c-.18.07-.26.35-.31.55A10.1,10.1,0,0,0,32,23.66a1.42,1.42,0,0,0,.26,1,1.53,1.53,0,0,0,1.1.25h.35a.25.25,0,0,1,.27.26.27.27,0,0,1-.26.27h-.48Z"/><path class="cls-1" d="M32.72,20.71a.27.27,0,0,1-.26-.18l-.58-1.86a1,1,0,0,1,0-.69.91.91,0,0,1,.91-.48l.28,0a1.53,1.53,0,0,0,.42,0,1,1,0,0,0,.56-.5c.06-.1.11-.21.17-.32a3,3,0,0,1,.33-.57,2,2,0,0,1,2.24-.66l.18.07a3.63,3.63,0,0,1,1.25,1.21,6.63,6.63,0,0,1,1.18,2.11,3.41,3.41,0,0,1,.1.54l-.53,0a2.55,2.55,0,0,0-.08-.42,5.92,5.92,0,0,0-1.1-1.93,3.1,3.1,0,0,0-1-1.05L36.57,16a1.48,1.48,0,0,0-1.64.48,3.72,3.72,0,0,0-.28.49c-.06.12-.11.23-.18.35a1.48,1.48,0,0,1-.91.75,2,2,0,0,1-.6,0l-.23,0c-.17,0-.35,0-.39.14a.59.59,0,0,0,0,.33L33,20.37a.26.26,0,0,1-.18.33Z"/><path class="cls-1" d="M42.15,17.28a.27.27,0,0,1-.25-.18,4.42,4.42,0,0,1-.23-1.73c0-.16,0-.33,0-.49a3.7,3.7,0,0,0,0-.93l-2.36.82a1.22,1.22,0,0,1-1.09,0l-.18-.15a.76.76,0,0,0-.13-.1s-.08,0-.25.23l-.87,1.16a.27.27,0,0,1-.43-.32l.87-1.16c.1-.13.39-.52.79-.43a.76.76,0,0,1,.38.24l.11.09c.14.09.39,0,.63-.06l2.64-.92a.26.26,0,0,1,.21,0,.26.26,0,0,1,.13.16,3.41,3.41,0,0,1,0,1.42c0,.15,0,.31,0,.47a4.17,4.17,0,0,0,.2,1.52.26.26,0,0,1-.16.34Z"/><path class="cls-1" d="M23.49,71.32a.27.27,0,0,1-.24-.14.27.27,0,0,1,.11-.36A8.51,8.51,0,0,0,27,66.66,27.74,27.74,0,0,0,28.38,62l.21-.86a74.59,74.59,0,0,1,6.33-16.51c.51-1,1-2,1.58-2.91a67,67,0,0,0,3.3-6.49l.28,0-.25-.1a27.46,27.46,0,0,0,1.22-3.57,16.52,16.52,0,0,0,.44-6.73.28.28,0,0,1,.22-.31.26.26,0,0,1,.31.22,17.3,17.3,0,0,1-.46,7,27.65,27.65,0,0,1-1.23,3.62l0,.09A71.41,71.41,0,0,1,37,42c-.54,1-1.07,1.92-1.58,2.89a73.76,73.76,0,0,0-6.28,16.4l-.22.85a26.79,26.79,0,0,1-1.46,4.72,9,9,0,0,1-3.82,4.41A.27.27,0,0,1,23.49,71.32Z"/><path class="cls-1" d="M40.15,35.64H40a.27.27,0,0,1-.22-.12.27.27,0,0,1,0-.26l0-.06a28.26,28.26,0,0,0,1.21-3.56.2.2,0,0,1,.08-.12,5.78,5.78,0,0,1,1.56-1.05,6.29,6.29,0,0,1,2.44-.54.3.3,0,0,1,.27.26,5.64,5.64,0,0,1-2.18,4.5h0A5.27,5.27,0,0,1,40.15,35.64Zm1.39-3.79a24.82,24.82,0,0,1-1.09,3.25,4.58,4.58,0,0,0,2.46-.85h0a4.93,4.93,0,0,0,2-3.78,5.66,5.66,0,0,0-2,.49A5.46,5.46,0,0,0,41.54,31.85Z"/><path class="cls-1" d="M40.59,32.41h-.05a3.76,3.76,0,0,1-2.38-1.52,3.91,3.91,0,0,1-.37-3.45.28.28,0,0,1,.35-.16,4.55,4.55,0,0,1,1.46.93,4.41,4.41,0,0,1,1.26,2.58h0a4.39,4.39,0,0,1,0,1.4.27.27,0,0,1-.1.17A.3.3,0,0,1,40.59,32.41ZM38.2,27.89a3.26,3.26,0,0,0,.4,2.7,3.15,3.15,0,0,0,1.76,1.23,4.3,4.3,0,0,0,0-.95h0a3.88,3.88,0,0,0-1.11-2.28A3.68,3.68,0,0,0,38.2,27.89Z"/><path class="cls-1" d="M38,39.63a4.77,4.77,0,0,1-3.8-1.43c-1-1.18-1.33-3.12-.91-5.76a.27.27,0,0,1,.16-.2.24.24,0,0,1,.26,0c.2.14,4.79,3.49,5.11,6.21a.28.28,0,0,1-.24.3.26.26,0,0,1-.29-.23c-.24-2.09-3.45-4.74-4.54-5.58-.29,2.24,0,3.89.85,4.89a4.35,4.35,0,0,0,3.5,1.24h0a.26.26,0,0,1,.26.26.26.26,0,0,1-.26.27Z"/><path class="cls-1" d="M24.12,88.78a2.43,2.43,0,0,1-1.61-.57.26.26,0,0,1,0-.37.27.27,0,0,1,.37,0,2.11,2.11,0,0,0,2.07.3,4.53,4.53,0,0,0,1.85-1.38,13.41,13.41,0,0,0,3-6.88,37.4,37.4,0,0,0,.38-7.74,62,62,0,0,1,.14-11A20.8,20.8,0,0,1,34.23,50.9a31.43,31.43,0,0,1,6.64-5.81c.93-.67,1.9-1.37,2.81-2.09a38.12,38.12,0,0,0,6.17-6.14.28.28,0,0,1,.38,0,.27.27,0,0,1,0,.37A38.83,38.83,0,0,1,44,43.42c-.92.73-1.89,1.43-2.83,2.11a30.68,30.68,0,0,0-6.53,5.7,20.24,20.24,0,0,0-3.82,10,60.87,60.87,0,0,0-.14,10.88,38.42,38.42,0,0,1-.38,7.85,14.09,14.09,0,0,1-3.13,7.15,5.06,5.06,0,0,1-2.07,1.53A3.12,3.12,0,0,1,24.12,88.78Z"/><path class="cls-1" d="M42.93,44.18a.25.25,0,0,1-.24-.15c-.09-.18-2-4.38.73-6.65a.27.27,0,0,1,.37,0c.06.07,1.51,1.83.6,5.63a.26.26,0,0,1-.32.2.27.27,0,0,1-.2-.32A6.64,6.64,0,0,0,43.53,38c-2.1,2.07-.38,5.79-.36,5.82a.28.28,0,0,1-.13.36A.23.23,0,0,1,42.93,44.18Z"/><path class="cls-1" d="M47,42.53a9.45,9.45,0,0,1-1.86-.21A.27.27,0,0,1,45,42a.27.27,0,0,1,.32-.2c1.69.35,3,.24,3.69-.33a1.64,1.64,0,0,0,.59-.92,10.14,10.14,0,0,0-2.45.05.26.26,0,1,1-.07-.52,9.56,9.56,0,0,1,2.88,0,.27.27,0,0,1,.2.26,2.12,2.12,0,0,1-.81,1.53A3.56,3.56,0,0,1,47,42.53Z"/><path class="cls-1" d="M40.84,52.61a.26.26,0,0,1-.26-.24c0-.2-.46-4.87,2-6.54A.26.26,0,0,1,43,46c0,.14.87,3.51.17,5.71a.26.26,0,0,1-.33.17.27.27,0,0,1-.18-.33,11.38,11.38,0,0,0-.08-5c-1.84,1.69-1.46,5.76-1.45,5.8a.28.28,0,0,1-.24.29Z"/><path class="cls-1" d="M53.53,40.05a2,2,0,0,1-.65-.1,4.8,4.8,0,0,1-1.81-1.26,3,3,0,0,1-1-1.48l-.06,0c-.42.12-.86-.15-1.18-.72a8.42,8.42,0,0,1-.94-4.35,1,1,0,0,1,1.49-1.1c.38.11.76.24,1.14.38a8.89,8.89,0,0,1-1-1.15,2.54,2.54,0,0,1-.48-.94,1.24,1.24,0,0,1,.26-1.13,1.72,1.72,0,0,1,1.24-.4l1.71,0a1.13,1.13,0,0,1,.9.25.87.87,0,0,1,.17.27,1.78,1.78,0,0,1,.21-.68,1.37,1.37,0,0,1,1.1-.62,2.22,2.22,0,0,1,1.15.26,7.13,7.13,0,0,1,1.81,1.4,3.35,3.35,0,0,1,1.23,1.9,2.39,2.39,0,0,1-1.31,2.25l-.14.08a7.91,7.91,0,0,1,1.07.25,2,2,0,0,1,1.39,1.09,2.22,2.22,0,0,1-.15,1.53l-.55,1.55a3.21,3.21,0,0,1-.62,1.2,2,2,0,0,1-2.23.42,2.79,2.79,0,0,1-1-.89l-.07-.1a2.06,2.06,0,0,1-.16,1.32A1.7,1.7,0,0,1,53.53,40.05Zm-2.88-3.46a.83.83,0,0,0-.07.38,2.19,2.19,0,0,0,.86,1.34A4.52,4.52,0,0,0,53,39.45,1.33,1.33,0,0,0,54.58,39a2.08,2.08,0,0,0,0-1.44L54,34.72l-.09-.4h0a.27.27,0,0,1,.2-.32.27.27,0,0,1,.32.2l.08.4a8.18,8.18,0,0,0,1.22,3.12,2.4,2.4,0,0,0,.83.73,1.43,1.43,0,0,0,1.61-.3,2.92,2.92,0,0,0,.51-1l.55-1.56a1.77,1.77,0,0,0,.15-1.17,1.47,1.47,0,0,0-1.05-.76,6.46,6.46,0,0,0-2.51-.29l-.72.09a.25.25,0,0,1-.29-.22.26.26,0,0,1,.21-.3,6.26,6.26,0,0,1,.74-.1,4.54,4.54,0,0,0,1.54-.48,1.89,1.89,0,0,0,1-1.73A2.91,2.91,0,0,0,57.25,29a7.21,7.21,0,0,0-1.68-1.3,1.77,1.77,0,0,0-.89-.21.86.86,0,0,0-.68.37,1.68,1.68,0,0,0-.16.65l-.32,3.07a.28.28,0,0,1-.27.24.26.26,0,0,1-.26-.25l-.1-2.78a.74.74,0,0,0-.1-.43.73.73,0,0,0-.51-.09l-1.7.06a1.29,1.29,0,0,0-.87.23.72.72,0,0,0-.14.64A2.24,2.24,0,0,0,50,30a9,9,0,0,0,2.7,2.44.28.28,0,0,1,.1.37.26.26,0,0,1-.36.09,15.69,15.69,0,0,0-3.17-1.31.83.83,0,0,0-.6,0c-.13.09-.19.29-.21.63a8,8,0,0,0,.88,4.07c.13.25.35.52.56.47s.22-.21.31-.38a1.71,1.71,0,0,1,.29-.43,1.49,1.49,0,0,1,1-.48h0a.27.27,0,0,1,.27.26.27.27,0,0,1-.26.27.64.64,0,0,0-.2,0,.3.3,0,0,1-.29.2c-.09,0-.22.11-.34.32Z"/><path class="cls-1" d="M53.8,34.59A1.64,1.64,0,1,1,55.11,33,1.49,1.49,0,0,1,53.8,34.59Zm0-2.68c-.43,0-.78.48-.78,1.07s.35,1.07.78,1.07.78-.48.78-1.07S54.23,31.91,53.8,31.91Z"/></svg>